<svg viewBox="0 0 370 177" fill="none" xmlns="http://www.w3.org/2000/svg">
<g clip-path="url(#clip0_76_2)">
<rect width="370" height="177" fill="#10041F"/>
<rect width="370" height="177" fill="url(#paint0_radial_76_2)" fill-opacity="0.12"/>
<circle cx="194.837" cy="110.204" r="1.21175" fill="white" fill-opacity="0.3"/>
<circle cx="147.353" cy="82.1558" r="0.605482" fill="white" fill-opacity="0.1"/>
<circle cx="343.215" cy="23.1122" r="0.605482" fill="white" fill-opacity="0.15"/>
<circle cx="204.401" cy="79.1519" r="0.605482" fill="white" fill-opacity="0.3"/>
<circle cx="266.696" cy="39.2073" r="0.605482" fill="white" fill-opacity="0.3"/>
<circle cx="366.378" cy="106.032" r="0.605482" fill="white" fill-opacity="0.1"/>
<circle cx="63.916" cy="64.713" r="0.605482" fill="white" fill-opacity="0.3"/>
<circle cx="232.769" cy="147.981" r="0.605482" fill="white" fill-opacity="0.3"/>
<circle cx="130.357" cy="76.5856" r="0.605482" fill="white" fill-opacity="0.3"/>
<g style="mix-blend-mode:plus-lighter" filter="url(#filter0_f_76_2)">
<path d="M397 850L113 566L-171 282" stroke="url(#paint1_linear_76_2)" stroke-opacity="0.15" stroke-width="85" stroke-linecap="square"/>
</g>
<g style="mix-blend-mode:plus-lighter" filter="url(#filter1_f_76_2)">
<path d="M142 6L-54.5 -204L-251 -414" stroke="url(#paint2_linear_76_2)" stroke-width="216" stroke-linecap="round"/>
</g>
<g style="mix-blend-mode:plus-lighter" filter="url(#filter2_f_76_2)">
<path d="M655 359L969 673L1283 987" stroke="url(#paint3_linear_76_2)" stroke-width="432" stroke-linecap="round"/>
</g>
<g style="mix-blend-mode:plus-lighter" filter="url(#filter3_f_76_2)">
<path d="M655 359L969 673L1283 987" stroke="url(#paint4_linear_76_2)" stroke-width="432" stroke-linecap="round"/>
</g>
<path d="M92 46C93.3334 45.8333 96.4 45.8 98 47C99.6 48.2 101.667 47.5 102.5 47M92.8358 55.6861L91.2108 42.6861C91.0989 41.7908 91.7969 41 92.6992 41H101.301C102.203 41 102.901 41.7908 102.789 42.6861L101.164 55.6861C101.07 56.4367 100.432 57 99.6758 57H94.3242C93.5677 57 92.9296 56.4367 92.8358 55.6861Z" stroke="#E5E5E5" stroke-width="1.5"/>
<path d="M141 39V41M141 57V59M133 49H131M135.314 43.3141L133.9 41.8999M146.686 43.3141L148.1 41.8999M135.314 54.69L133.9 56.1042M146.686 54.69L148.1 56.1042M151 49H149M146 49C146 51.7614 143.761 54 141 54C138.239 54 136 51.7614 136 49C136 46.2386 138.239 44 141 44C143.761 44 146 46.2386 146 49Z" stroke="#E5E5E5" stroke-width="1.5" stroke-linecap="round" stroke-linejoin="round"/>
<mask id="path-18-inside-1_76_2" fill="white">
<path fill-rule="evenodd" clip-rule="evenodd" d="M194 49C194 47.8954 193.105 47 192 47H178C176.895 47 176 47.8954 176 49V55C176 56.1046 176.895 57 178 57H178.5C179.328 57 180 56.3284 180 55.5V55.5C180 54.6716 180.672 54 181.5 54H188.5C189.328 54 190 54.6716 190 55.5V55.5C190 56.3284 190.672 57 191.5 57H192C193.105 57 194 56.1046 194 55V49Z"/>
</mask>
<path d="M178 48.5H192V45.5H178V48.5ZM177.5 55V49H174.5V55H177.5ZM178.5 55.5H178V58.5H178.5V55.5ZM181.5 55.5H188.5V52.5H181.5V55.5ZM192 55.5H191.5V58.5H192V55.5ZM192.5 49V55H195.5V49H192.5ZM192 58.5C193.933 58.5 195.5 56.933 195.5 55H192.5C192.5 55.2761 192.276 55.5 192 55.5V58.5ZM188.5 55.5C188.5 57.1569 189.843 58.5 191.5 58.5V55.5H188.5ZM188.5 55.5H188.5H191.5C191.5 53.8431 190.157 52.5 188.5 52.5V55.5ZM181.5 55.5H181.5V52.5C179.843 52.5 178.5 53.8431 178.5 55.5H181.5ZM178.5 58.5C180.157 58.5 181.5 57.1569 181.5 55.5H178.5V58.5ZM174.5 55C174.5 56.933 176.067 58.5 178 58.5V55.5C177.724 55.5 177.5 55.2761 177.5 55H174.5ZM192 48.5C192.276 48.5 192.5 48.7239 192.5 49H195.5C195.5 47.067 193.933 45.5 192 45.5V48.5ZM178 45.5C176.067 45.5 174.5 47.067 174.5 49H177.5C177.5 48.7239 177.724 48.5 178 48.5V45.5Z" fill="#E5E5E5" mask="url(#path-18-inside-1_76_2)"/>
<path d="M192 48L190.456 43.3675C190.184 42.5509 189.419 42 188.558 42H181.442C180.581 42 179.816 42.5509 179.544 43.3675L178 48" stroke="#E5E5E5" stroke-width="1.5"/>
<rect x="179" y="50" width="2" height="1" rx="0.5" fill="#E5E5E5"/>
<rect x="189" y="50" width="2" height="1" rx="0.5" fill="#E5E5E5"/>
<path d="M192.061 47.1076L193.939 45.8925" stroke="#E5E5E5" stroke-width="1.5" stroke-linecap="round"/>
<path d="M178 47L176 46" stroke="#E5E5E5" stroke-width="1.5" stroke-linecap="round"/>
<rect x="219.75" y="41.75" width="18.5" height="14.5" rx="2.25" stroke="#E5E5E5" stroke-width="1.5"/>
<path d="M219 46H238" stroke="#E5E5E5" stroke-width="1.5"/>
<rect x="222" y="52" width="5" height="2" rx="0.7" fill="#E5E5E5"/>
<rect x="263.75" y="41.75" width="18.5" height="8.5" rx="1.25" stroke="#E5E5E5" stroke-width="1.5"/>
<path d="M267 51V57.5" stroke="#E5E5E5" stroke-width="1.5" stroke-linecap="round"/>
<path d="M278.25 57.5C278.25 57.9142 278.586 58.25 279 58.25C279.414 58.25 279.75 57.9142 279.75 57.5H278.25ZM278.25 51V57.5H279.75V51H278.25Z" fill="#E5E5E5"/>
<line x1="264.576" y1="49.735" x2="269.576" y2="41.735" stroke="#E5E5E5"/>
<line x1="267.576" y1="49.735" x2="272.576" y2="41.735" stroke="#E5E5E5"/>
<line x1="270.576" y1="49.735" x2="275.576" y2="41.735" stroke="#E5E5E5"/>
<line x1="273.576" y1="49.735" x2="278.576" y2="41.735" stroke="#E5E5E5"/>
<line x1="276.576" y1="49.735" x2="281.576" y2="41.735" stroke="#E5E5E5"/>
<line x1="279.576" y1="49.735" x2="281.924" y2="45.9784" stroke="#E5E5E5"/>
<line x1="263.576" y1="47.1876" x2="266.984" y2="41.735" stroke="#E5E5E5"/>
<path d="M94 85L88.2226 88.8516C88.0836 88.9443 88 89.1004 88 89.2676V100.629C88 101.015 88.4186 101.256 88.7519 101.061L94 98M94 85L99.5 89M94 85V98M99.5 89L105.238 85.469C105.571 85.2639 106 85.5036 106 85.8948V96.7206C106 96.8942 105.91 97.0554 105.762 97.1464L99.5 101M99.5 89V101M99.5 101L94 98" stroke="#E5E5E5" stroke-width="1.5"/>
<path d="M133.8 86.5H149.34C149.671 86.5 149.911 86.8164 149.821 87.1354L147.853 94.1354C147.792 94.351 147.595 94.5 147.371 94.5H135.5M132 85H133.09C133.328 85 133.534 85.1682 133.58 85.4019L135.92 97.0981C135.966 97.3318 136.172 97.5 136.41 97.5H147" stroke="#E5E5E5" stroke-width="1.5" stroke-linecap="round"/>
<circle cx="137" cy="100" r="1" fill="#E5E5E5"/>
<circle cx="146" cy="100" r="1" fill="#E5E5E5"/>
<path d="M190 97.5V96.8182V90.2727V88.5C190 87.6716 189.328 87 188.5 87H177.5C176.672 87 176 87.6716 176 88.5V97.5C176 98.3284 176.672 99 177.5 99H188.5C189.328 99 190 98.3284 190 97.5Z" stroke="#E5E5E5" stroke-width="1.5" stroke-linecap="round"/>
<path d="M190 91L192.293 88.7071C192.923 88.0771 194 88.5233 194 89.4142V96.5858C194 97.4767 192.923 97.9229 192.293 97.2929L190 95" stroke="#E5E5E5" stroke-width="1.5" stroke-linecap="round"/>
<rect x="185" y="89" width="3" height="2" rx="1" fill="#E5E5E5"/>
<path d="M223.787 98.2414V98.2414C222.476 98.2414 221.4 97.2008 221.357 95.8897L221.217 91.6207M223.787 98.2414L221.434 101.5M223.787 98.2414H234.14M234.14 98.2414V98.2414C235.454 98.2414 236.533 97.203 236.583 95.8902L236.747 91.6207M234.14 98.2414L236.5 101.5M225.199 101H232.729M221.217 91.6207L221.102 88.0984C221.046 86.4039 222.405 85 224.1 85H233.883C235.585 85 236.946 86.4141 236.881 88.1147L236.747 91.6207M221.217 91.6207H236.747" stroke="#E5E5E5" stroke-width="1.5" stroke-linecap="round"/>
<rect x="223" y="94" width="4" height="1.5" rx="0.7" fill="#E5E5E5"/>
<rect x="231" y="94" width="4" height="1.5" rx="0.7" fill="#E5E5E5"/>
<path d="M265.5 95V95C264.672 95 264 95.6716 264 96.5V98C264 99.1046 264.895 100 266 100H280C281.105 100 282 99.1046 282 98V96.5C282 95.6716 281.328 95 280.5 95V95M265.5 95H269.172C269.702 95 270.201 95.2255 270.64 95.5238C271.748 96.2781 273.573 96.859 275.372 95.5413C275.8 95.2279 276.298 95 276.828 95H280.5M265.5 95V88C265.5 86.8954 266.395 86 267.5 86H278.5C279.605 86 280.5 86.8954 280.5 88V95" stroke="#E5E5E5" stroke-width="1.5" stroke-linecap="round"/>
<g filter="url(#filter4_ddd_76_2)">
<path d="M114.848 151V133.12H121.352C122.552 133.12 123.608 133.344 124.52 133.792C125.448 134.224 126.168 134.864 126.68 135.712C127.192 136.544 127.448 137.544 127.448 138.712C127.448 139.864 127.184 140.856 126.656 141.688C126.144 142.52 125.432 143.16 124.52 143.608C123.608 144.056 122.552 144.28 121.352 144.28H117.68V151H114.848ZM117.68 141.76H121.424C122.064 141.76 122.624 141.632 123.104 141.376C123.584 141.12 123.96 140.768 124.232 140.32C124.504 139.856 124.64 139.312 124.64 138.688C124.64 138.064 124.504 137.528 124.232 137.08C123.96 136.616 123.584 136.264 123.104 136.024C122.624 135.768 122.064 135.64 121.424 135.64H117.68V141.76ZM132.664 151.288C131.784 151.288 131.008 151.136 130.336 150.832C129.68 150.512 129.168 150.08 128.8 149.536C128.432 148.976 128.248 148.32 128.248 147.568C128.248 146.864 128.4 146.232 128.704 145.672C129.024 145.112 129.512 144.64 130.168 144.256C130.824 143.872 131.648 143.6 132.64 143.44L137.152 142.696V144.832L133.168 145.528C132.448 145.656 131.92 145.888 131.584 146.224C131.248 146.544 131.08 146.96 131.08 147.472C131.08 147.968 131.264 148.376 131.632 148.696C132.016 149 132.504 149.152 133.096 149.152C133.832 149.152 134.472 148.992 135.016 148.672C135.576 148.352 136.008 147.928 136.312 147.4C136.616 146.856 136.768 146.256 136.768 145.6V142.264C136.768 141.624 136.528 141.104 136.048 140.704C135.584 140.288 134.96 140.08 134.176 140.08C133.456 140.08 132.824 140.272 132.28 140.656C131.752 141.024 131.36 141.504 131.104 142.096L128.848 140.968C129.088 140.328 129.48 139.768 130.024 139.288C130.568 138.792 131.2 138.408 131.92 138.136C132.656 137.864 133.432 137.728 134.248 137.728C135.272 137.728 136.176 137.92 136.96 138.304C137.76 138.688 138.376 139.224 138.808 139.912C139.256 140.584 139.48 141.368 139.48 142.264V151H136.888V148.648L137.44 148.72C137.136 149.248 136.744 149.704 136.264 150.088C135.8 150.472 135.264 150.768 134.656 150.976C134.064 151.184 133.4 151.288 132.664 151.288ZM142.171 151V132.832H144.883V151H142.171ZM153.67 151.288C152.374 151.288 151.222 150.992 150.214 150.4C149.222 149.792 148.446 148.976 147.886 147.952C147.326 146.912 147.046 145.752 147.046 144.472C147.046 143.16 147.326 142 147.886 140.992C148.462 139.984 149.23 139.192 150.19 138.616C151.15 138.024 152.238 137.728 153.454 137.728C154.43 137.728 155.302 137.896 156.07 138.232C156.838 138.568 157.486 139.032 158.014 139.624C158.542 140.2 158.942 140.864 159.214 141.616C159.502 142.368 159.646 143.168 159.646 144.016C159.646 144.224 159.638 144.44 159.622 144.664C159.606 144.888 159.574 145.096 159.526 145.288H149.182V143.128H157.99L156.694 144.112C156.854 143.328 156.798 142.632 156.526 142.024C156.27 141.4 155.87 140.912 155.326 140.56C154.798 140.192 154.174 140.008 153.454 140.008C152.734 140.008 152.094 140.192 151.534 140.56C150.974 140.912 150.542 141.424 150.238 142.096C149.934 142.752 149.814 143.552 149.878 144.496C149.798 145.376 149.918 146.144 150.238 146.8C150.574 147.456 151.038 147.968 151.63 148.336C152.238 148.704 152.926 148.888 153.694 148.888C154.478 148.888 155.142 148.712 155.686 148.36C156.246 148.008 156.686 147.552 157.006 146.992L159.214 148.072C158.958 148.68 158.558 149.232 158.014 149.728C157.486 150.208 156.846 150.592 156.094 150.88C155.358 151.152 154.55 151.288 153.67 151.288ZM167.428 151.144C166.068 151.144 165.012 150.76 164.26 149.992C163.508 149.224 163.132 148.144 163.132 146.752V140.464H160.852V138.016H161.212C161.82 138.016 162.292 137.84 162.628 137.488C162.964 137.136 163.132 136.656 163.132 136.048V135.04H165.844V138.016H168.796V140.464H165.844V146.632C165.844 147.08 165.916 147.464 166.06 147.784C166.204 148.088 166.436 148.328 166.756 148.504C167.076 148.664 167.492 148.744 168.004 148.744C168.132 148.744 168.276 148.736 168.436 148.72C168.596 148.704 168.748 148.688 168.892 148.672V151C168.668 151.032 168.42 151.064 168.148 151.096C167.876 151.128 167.636 151.144 167.428 151.144ZM176.675 151.144C175.315 151.144 174.259 150.76 173.507 149.992C172.755 149.224 172.379 148.144 172.379 146.752V140.464H170.099V138.016H170.459C171.067 138.016 171.539 137.84 171.875 137.488C172.211 137.136 172.379 136.656 172.379 136.048V135.04H175.091V138.016H178.043V140.464H175.091V146.632C175.091 147.08 175.163 147.464 175.307 147.784C175.451 148.088 175.683 148.328 176.003 148.504C176.323 148.664 176.739 148.744 177.251 148.744C177.379 148.744 177.523 148.736 177.683 148.72C177.843 148.704 177.995 148.688 178.139 148.672V151C177.915 151.032 177.667 151.064 177.395 151.096C177.123 151.128 176.883 151.144 176.675 151.144ZM186.167 151.288C184.871 151.288 183.719 150.992 182.711 150.4C181.719 149.792 180.943 148.976 180.383 147.952C179.823 146.912 179.543 145.752 179.543 144.472C179.543 143.16 179.823 142 180.383 140.992C180.959 139.984 181.727 139.192 182.687 138.616C183.647 138.024 184.735 137.728 185.951 137.728C186.927 137.728 187.799 137.896 188.567 138.232C189.335 138.568 189.983 139.032 190.511 139.624C191.039 140.2 191.439 140.864 191.711 141.616C191.999 142.368 192.143 143.168 192.143 144.016C192.143 144.224 192.135 144.44 192.119 144.664C192.103 144.888 192.071 145.096 192.023 145.288H181.679V143.128H190.487L189.191 144.112C189.351 143.328 189.295 142.632 189.023 142.024C188.767 141.4 188.367 140.912 187.823 140.56C187.295 140.192 186.671 140.008 185.951 140.008C185.231 140.008 184.591 140.192 184.031 140.56C183.471 140.912 183.039 141.424 182.735 142.096C182.431 142.752 182.311 143.552 182.375 144.496C182.295 145.376 182.415 146.144 182.735 146.8C183.071 147.456 183.535 147.968 184.127 148.336C184.735 148.704 185.423 148.888 186.191 148.888C186.975 148.888 187.639 148.712 188.183 148.36C188.743 148.008 189.183 147.552 189.503 146.992L191.711 148.072C191.455 148.68 191.055 149.232 190.511 149.728C189.983 150.208 189.343 150.592 188.591 150.88C187.855 151.152 187.047 151.288 186.167 151.288ZM198.289 151V133.12H201.121V151H198.289ZM210.252 151.288C208.956 151.288 207.804 150.992 206.796 150.4C205.804 149.792 205.012 148.976 204.42 147.952C203.844 146.928 203.556 145.768 203.556 144.472C203.556 143.192 203.844 142.04 204.42 141.016C204.996 139.992 205.788 139.192 206.796 138.616C207.804 138.024 208.956 137.728 210.252 137.728C211.132 137.728 211.956 137.888 212.724 138.208C213.492 138.512 214.156 138.936 214.716 139.48C215.292 140.024 215.716 140.656 215.988 141.376L213.612 142.48C213.34 141.808 212.9 141.272 212.292 140.872C211.7 140.456 211.02 140.248 210.252 140.248C209.516 140.248 208.852 140.432 208.26 140.8C207.684 141.152 207.228 141.656 206.892 142.312C206.556 142.952 206.388 143.68 206.388 144.496C206.388 145.312 206.556 146.048 206.892 146.704C207.228 147.344 207.684 147.848 208.26 148.216C208.852 148.584 209.516 148.768 210.252 148.768C211.036 148.768 211.716 148.568 212.292 148.168C212.884 147.752 213.324 147.2 213.612 146.512L215.988 147.64C215.732 148.328 215.316 148.952 214.74 149.512C214.18 150.056 213.516 150.488 212.748 150.808C211.98 151.128 211.148 151.288 210.252 151.288ZM224.423 151.288C223.175 151.288 222.031 150.992 220.991 150.4C219.967 149.808 219.151 149 218.543 147.976C217.935 146.952 217.631 145.792 217.631 144.496C217.631 143.184 217.935 142.024 218.543 141.016C219.151 139.992 219.967 139.192 220.991 138.616C222.015 138.024 223.159 137.728 224.423 137.728C225.703 137.728 226.847 138.024 227.855 138.616C228.879 139.192 229.687 139.992 230.279 141.016C230.887 142.024 231.191 143.184 231.191 144.496C231.191 145.808 230.887 146.976 230.279 148C229.671 149.024 228.855 149.832 227.831 150.424C226.807 151 225.671 151.288 224.423 151.288ZM224.423 148.768C225.191 148.768 225.871 148.584 226.463 148.216C227.055 147.848 227.519 147.344 227.855 146.704C228.207 146.048 228.383 145.312 228.383 144.496C228.383 143.68 228.207 142.952 227.855 142.312C227.519 141.672 227.055 141.168 226.463 140.8C225.871 140.432 225.191 140.248 224.423 140.248C223.671 140.248 222.991 140.432 222.383 140.8C221.791 141.168 221.319 141.672 220.967 142.312C220.631 142.952 220.463 143.68 220.463 144.496C220.463 145.312 220.631 146.048 220.967 146.704C221.319 147.344 221.791 147.848 222.383 148.216C222.991 148.584 223.671 148.768 224.423 148.768ZM233.359 151V138.016H235.951V140.56L235.639 140.224C235.959 139.408 236.471 138.792 237.175 138.376C237.879 137.944 238.695 137.728 239.623 137.728C240.583 137.728 241.431 137.936 242.167 138.352C242.903 138.768 243.479 139.344 243.895 140.08C244.311 140.816 244.519 141.664 244.519 142.624V151H241.831V143.344C241.831 142.688 241.711 142.136 241.471 141.688C241.231 141.224 240.887 140.872 240.439 140.632C240.007 140.376 239.511 140.248 238.951 140.248C238.391 140.248 237.887 140.376 237.439 140.632C237.007 140.872 236.671 141.224 236.431 141.688C236.191 142.152 236.071 142.704 236.071 143.344V151H233.359ZM251.741 151.288C250.413 151.288 249.245 150.96 248.237 150.304C247.245 149.648 246.549 148.768 246.149 147.664L248.237 146.68C248.589 147.416 249.069 148 249.677 148.432C250.301 148.864 250.989 149.08 251.741 149.08C252.381 149.08 252.901 148.936 253.301 148.648C253.701 148.36 253.901 147.968 253.901 147.472C253.901 147.152 253.813 146.896 253.637 146.704C253.461 146.496 253.237 146.328 252.965 146.2C252.709 146.072 252.445 145.976 252.173 145.912L250.133 145.336C249.013 145.016 248.173 144.536 247.613 143.896C247.069 143.24 246.797 142.48 246.797 141.616C246.797 140.832 246.997 140.152 247.397 139.576C247.797 138.984 248.349 138.528 249.053 138.208C249.757 137.888 250.549 137.728 251.429 137.728C252.613 137.728 253.669 138.024 254.597 138.616C255.525 139.192 256.181 140 256.565 141.04L254.477 142.024C254.221 141.4 253.813 140.904 253.253 140.536C252.709 140.168 252.093 139.984 251.405 139.984C250.813 139.984 250.341 140.128 249.989 140.416C249.637 140.688 249.461 141.048 249.461 141.496C249.461 141.8 249.541 142.056 249.701 142.264C249.861 142.456 250.069 142.616 250.325 142.744C250.581 142.856 250.845 142.952 251.117 143.032L253.229 143.656C254.301 143.96 255.125 144.44 255.701 145.096C256.277 145.736 256.565 146.504 256.565 147.4C256.565 148.168 256.357 148.848 255.941 149.44C255.541 150.016 254.981 150.472 254.261 150.808C253.541 151.128 252.701 151.288 251.741 151.288Z" fill="white"/>
<path d="M114.848 151V133.12H121.352C122.552 133.12 123.608 133.344 124.52 133.792C125.448 134.224 126.168 134.864 126.68 135.712C127.192 136.544 127.448 137.544 127.448 138.712C127.448 139.864 127.184 140.856 126.656 141.688C126.144 142.52 125.432 143.16 124.52 143.608C123.608 144.056 122.552 144.28 121.352 144.28H117.68V151H114.848ZM117.68 141.76H121.424C122.064 141.76 122.624 141.632 123.104 141.376C123.584 141.12 123.96 140.768 124.232 140.32C124.504 139.856 124.64 139.312 124.64 138.688C124.64 138.064 124.504 137.528 124.232 137.08C123.96 136.616 123.584 136.264 123.104 136.024C122.624 135.768 122.064 135.64 121.424 135.64H117.68V141.76ZM132.664 151.288C131.784 151.288 131.008 151.136 130.336 150.832C129.68 150.512 129.168 150.08 128.8 149.536C128.432 148.976 128.248 148.32 128.248 147.568C128.248 146.864 128.4 146.232 128.704 145.672C129.024 145.112 129.512 144.64 130.168 144.256C130.824 143.872 131.648 143.6 132.64 143.44L137.152 142.696V144.832L133.168 145.528C132.448 145.656 131.92 145.888 131.584 146.224C131.248 146.544 131.08 146.96 131.08 147.472C131.08 147.968 131.264 148.376 131.632 148.696C132.016 149 132.504 149.152 133.096 149.152C133.832 149.152 134.472 148.992 135.016 148.672C135.576 148.352 136.008 147.928 136.312 147.4C136.616 146.856 136.768 146.256 136.768 145.6V142.264C136.768 141.624 136.528 141.104 136.048 140.704C135.584 140.288 134.96 140.08 134.176 140.08C133.456 140.08 132.824 140.272 132.28 140.656C131.752 141.024 131.36 141.504 131.104 142.096L128.848 140.968C129.088 140.328 129.48 139.768 130.024 139.288C130.568 138.792 131.2 138.408 131.92 138.136C132.656 137.864 133.432 137.728 134.248 137.728C135.272 137.728 136.176 137.92 136.96 138.304C137.76 138.688 138.376 139.224 138.808 139.912C139.256 140.584 139.48 141.368 139.48 142.264V151H136.888V148.648L137.44 148.72C137.136 149.248 136.744 149.704 136.264 150.088C135.8 150.472 135.264 150.768 134.656 150.976C134.064 151.184 133.4 151.288 132.664 151.288ZM142.171 151V132.832H144.883V151H142.171ZM153.67 151.288C152.374 151.288 151.222 150.992 150.214 150.4C149.222 149.792 148.446 148.976 147.886 147.952C147.326 146.912 147.046 145.752 147.046 144.472C147.046 143.16 147.326 142 147.886 140.992C148.462 139.984 149.23 139.192 150.19 138.616C151.15 138.024 152.238 137.728 153.454 137.728C154.43 137.728 155.302 137.896 156.07 138.232C156.838 138.568 157.486 139.032 158.014 139.624C158.542 140.2 158.942 140.864 159.214 141.616C159.502 142.368 159.646 143.168 159.646 144.016C159.646 144.224 159.638 144.44 159.622 144.664C159.606 144.888 159.574 145.096 159.526 145.288H149.182V143.128H157.99L156.694 144.112C156.854 143.328 156.798 142.632 156.526 142.024C156.27 141.4 155.87 140.912 155.326 140.56C154.798 140.192 154.174 140.008 153.454 140.008C152.734 140.008 152.094 140.192 151.534 140.56C150.974 140.912 150.542 141.424 150.238 142.096C149.934 142.752 149.814 143.552 149.878 144.496C149.798 145.376 149.918 146.144 150.238 146.8C150.574 147.456 151.038 147.968 151.63 148.336C152.238 148.704 152.926 148.888 153.694 148.888C154.478 148.888 155.142 148.712 155.686 148.36C156.246 148.008 156.686 147.552 157.006 146.992L159.214 148.072C158.958 148.68 158.558 149.232 158.014 149.728C157.486 150.208 156.846 150.592 156.094 150.88C155.358 151.152 154.55 151.288 153.67 151.288ZM167.428 151.144C166.068 151.144 165.012 150.76 164.26 149.992C163.508 149.224 163.132 148.144 163.132 146.752V140.464H160.852V138.016H161.212C161.82 138.016 162.292 137.84 162.628 137.488C162.964 137.136 163.132 136.656 163.132 136.048V135.04H165.844V138.016H168.796V140.464H165.844V146.632C165.844 147.08 165.916 147.464 166.06 147.784C166.204 148.088 166.436 148.328 166.756 148.504C167.076 148.664 167.492 148.744 168.004 148.744C168.132 148.744 168.276 148.736 168.436 148.72C168.596 148.704 168.748 148.688 168.892 148.672V151C168.668 151.032 168.42 151.064 168.148 151.096C167.876 151.128 167.636 151.144 167.428 151.144ZM176.675 151.144C175.315 151.144 174.259 150.76 173.507 149.992C172.755 149.224 172.379 148.144 172.379 146.752V140.464H170.099V138.016H170.459C171.067 138.016 171.539 137.84 171.875 137.488C172.211 137.136 172.379 136.656 172.379 136.048V135.04H175.091V138.016H178.043V140.464H175.091V146.632C175.091 147.08 175.163 147.464 175.307 147.784C175.451 148.088 175.683 148.328 176.003 148.504C176.323 148.664 176.739 148.744 177.251 148.744C177.379 148.744 177.523 148.736 177.683 148.72C177.843 148.704 177.995 148.688 178.139 148.672V151C177.915 151.032 177.667 151.064 177.395 151.096C177.123 151.128 176.883 151.144 176.675 151.144ZM186.167 151.288C184.871 151.288 183.719 150.992 182.711 150.4C181.719 149.792 180.943 148.976 180.383 147.952C179.823 146.912 179.543 145.752 179.543 144.472C179.543 143.16 179.823 142 180.383 140.992C180.959 139.984 181.727 139.192 182.687 138.616C183.647 138.024 184.735 137.728 185.951 137.728C186.927 137.728 187.799 137.896 188.567 138.232C189.335 138.568 189.983 139.032 190.511 139.624C191.039 140.2 191.439 140.864 191.711 141.616C191.999 142.368 192.143 143.168 192.143 144.016C192.143 144.224 192.135 144.44 192.119 144.664C192.103 144.888 192.071 145.096 192.023 145.288H181.679V143.128H190.487L189.191 144.112C189.351 143.328 189.295 142.632 189.023 142.024C188.767 141.4 188.367 140.912 187.823 140.56C187.295 140.192 186.671 140.008 185.951 140.008C185.231 140.008 184.591 140.192 184.031 140.56C183.471 140.912 183.039 141.424 182.735 142.096C182.431 142.752 182.311 143.552 182.375 144.496C182.295 145.376 182.415 146.144 182.735 146.8C183.071 147.456 183.535 147.968 184.127 148.336C184.735 148.704 185.423 148.888 186.191 148.888C186.975 148.888 187.639 148.712 188.183 148.36C188.743 148.008 189.183 147.552 189.503 146.992L191.711 148.072C191.455 148.68 191.055 149.232 190.511 149.728C189.983 150.208 189.343 150.592 188.591 150.88C187.855 151.152 187.047 151.288 186.167 151.288ZM198.289 151V133.12H201.121V151H198.289ZM210.252 151.288C208.956 151.288 207.804 150.992 206.796 150.4C205.804 149.792 205.012 148.976 204.42 147.952C203.844 146.928 203.556 145.768 203.556 144.472C203.556 143.192 203.844 142.04 204.42 141.016C204.996 139.992 205.788 139.192 206.796 138.616C207.804 138.024 208.956 137.728 210.252 137.728C211.132 137.728 211.956 137.888 212.724 138.208C213.492 138.512 214.156 138.936 214.716 139.48C215.292 140.024 215.716 140.656 215.988 141.376L213.612 142.48C213.34 141.808 212.9 141.272 212.292 140.872C211.7 140.456 211.02 140.248 210.252 140.248C209.516 140.248 208.852 140.432 208.26 140.8C207.684 141.152 207.228 141.656 206.892 142.312C206.556 142.952 206.388 143.68 206.388 144.496C206.388 145.312 206.556 146.048 206.892 146.704C207.228 147.344 207.684 147.848 208.26 148.216C208.852 148.584 209.516 148.768 210.252 148.768C211.036 148.768 211.716 148.568 212.292 148.168C212.884 147.752 213.324 147.2 213.612 146.512L215.988 147.64C215.732 148.328 215.316 148.952 214.74 149.512C214.18 150.056 213.516 150.488 212.748 150.808C211.98 151.128 211.148 151.288 210.252 151.288ZM224.423 151.288C223.175 151.288 222.031 150.992 220.991 150.4C219.967 149.808 219.151 149 218.543 147.976C217.935 146.952 217.631 145.792 217.631 144.496C217.631 143.184 217.935 142.024 218.543 141.016C219.151 139.992 219.967 139.192 220.991 138.616C222.015 138.024 223.159 137.728 224.423 137.728C225.703 137.728 226.847 138.024 227.855 138.616C228.879 139.192 229.687 139.992 230.279 141.016C230.887 142.024 231.191 143.184 231.191 144.496C231.191 145.808 230.887 146.976 230.279 148C229.671 149.024 228.855 149.832 227.831 150.424C226.807 151 225.671 151.288 224.423 151.288ZM224.423 148.768C225.191 148.768 225.871 148.584 226.463 148.216C227.055 147.848 227.519 147.344 227.855 146.704C228.207 146.048 228.383 145.312 228.383 144.496C228.383 143.68 228.207 142.952 227.855 142.312C227.519 141.672 227.055 141.168 226.463 140.8C225.871 140.432 225.191 140.248 224.423 140.248C223.671 140.248 222.991 140.432 222.383 140.8C221.791 141.168 221.319 141.672 220.967 142.312C220.631 142.952 220.463 143.68 220.463 144.496C220.463 145.312 220.631 146.048 220.967 146.704C221.319 147.344 221.791 147.848 222.383 148.216C222.991 148.584 223.671 148.768 224.423 148.768ZM233.359 151V138.016H235.951V140.56L235.639 140.224C235.959 139.408 236.471 138.792 237.175 138.376C237.879 137.944 238.695 137.728 239.623 137.728C240.583 137.728 241.431 137.936 242.167 138.352C242.903 138.768 243.479 139.344 243.895 140.08C244.311 140.816 244.519 141.664 244.519 142.624V151H241.831V143.344C241.831 142.688 241.711 142.136 241.471 141.688C241.231 141.224 240.887 140.872 240.439 140.632C240.007 140.376 239.511 140.248 238.951 140.248C238.391 140.248 237.887 140.376 237.439 140.632C237.007 140.872 236.671 141.224 236.431 141.688C236.191 142.152 236.071 142.704 236.071 143.344V151H233.359ZM251.741 151.288C250.413 151.288 249.245 150.96 248.237 150.304C247.245 149.648 246.549 148.768 246.149 147.664L248.237 146.68C248.589 147.416 249.069 148 249.677 148.432C250.301 148.864 250.989 149.08 251.741 149.08C252.381 149.08 252.901 148.936 253.301 148.648C253.701 148.36 253.901 147.968 253.901 147.472C253.901 147.152 253.813 146.896 253.637 146.704C253.461 146.496 253.237 146.328 252.965 146.2C252.709 146.072 252.445 145.976 252.173 145.912L250.133 145.336C249.013 145.016 248.173 144.536 247.613 143.896C247.069 143.24 246.797 142.48 246.797 141.616C246.797 140.832 246.997 140.152 247.397 139.576C247.797 138.984 248.349 138.528 249.053 138.208C249.757 137.888 250.549 137.728 251.429 137.728C252.613 137.728 253.669 138.024 254.597 138.616C255.525 139.192 256.181 140 256.565 141.04L254.477 142.024C254.221 141.4 253.813 140.904 253.253 140.536C252.709 140.168 252.093 139.984 251.405 139.984C250.813 139.984 250.341 140.128 249.989 140.416C249.637 140.688 249.461 141.048 249.461 141.496C249.461 141.8 249.541 142.056 249.701 142.264C249.861 142.456 250.069 142.616 250.325 142.744C250.581 142.856 250.845 142.952 251.117 143.032L253.229 143.656C254.301 143.96 255.125 144.44 255.701 145.096C256.277 145.736 256.565 146.504 256.565 147.4C256.565 148.168 256.357 148.848 255.941 149.44C255.541 150.016 254.981 150.472 254.261 150.808C253.541 151.128 252.701 151.288 251.741 151.288Z" fill="url(#paint5_linear_76_2)" fill-opacity="0.4"/>
</g>
</g>
<rect x="0.5" y="0.5" width="369" height="176" stroke="white" stroke-opacity="0.5" style="mix-blend-mode:overlay"/>
<defs>
<filter id="filter0_f_76_2" x="-327.104" y="125.896" width="880.208" height="880.208" filterUnits="userSpaceOnUse" color-interpolation-filters="sRGB">
<feFlood flood-opacity="0" result="BackgroundImageFix"/>
<feBlend mode="normal" in="SourceGraphic" in2="BackgroundImageFix" result="shape"/>
<feGaussianBlur stdDeviation="48" result="effect1_foregroundBlur_76_2"/>
</filter>
<filter id="filter1_f_76_2" x="-427" y="-590" width="745.001" height="772.001" filterUnits="userSpaceOnUse" color-interpolation-filters="sRGB">
<feFlood flood-opacity="0" result="BackgroundImageFix"/>
<feBlend mode="normal" in="SourceGraphic" in2="BackgroundImageFix" result="shape"/>
<feGaussianBlur stdDeviation="34" result="effect1_foregroundBlur_76_2"/>
</filter>
<filter id="filter2_f_76_2" x="351" y="55" width="1236" height="1236" filterUnits="userSpaceOnUse" color-interpolation-filters="sRGB">
<feFlood flood-opacity="0" result="BackgroundImageFix"/>
<feBlend mode="normal" in="SourceGraphic" in2="BackgroundImageFix" result="shape"/>
<feGaussianBlur stdDeviation="44" result="effect1_foregroundBlur_76_2"/>
</filter>
<filter id="filter3_f_76_2" x="351" y="55" width="1236" height="1236" filterUnits="userSpaceOnUse" color-interpolation-filters="sRGB">
<feFlood flood-opacity="0" result="BackgroundImageFix"/>
<feBlend mode="normal" in="SourceGraphic" in2="BackgroundImageFix" result="shape"/>
<feGaussianBlur stdDeviation="44" result="effect1_foregroundBlur_76_2"/>
</filter>
<filter id="filter4_ddd_76_2" x="94.848" y="116.832" width="181.717" height="58.4559" filterUnits="userSpaceOnUse" color-interpolation-filters="sRGB">
<feFlood flood-opacity="0" result="BackgroundImageFix"/>
<feColorMatrix in="SourceAlpha" type="matrix" values="0 0 0 0 0 0 0 0 0 0 0 0 0 0 0 0 0 0 127 0" result="hardAlpha"/>
<feOffset dy="6"/>
<feGaussianBlur stdDeviation="8"/>
<feComposite in2="hardAlpha" operator="out"/>
<feColorMatrix type="matrix" values="0 0 0 0 0 0 0 0 0 0 0 0 0 0 0 0 0 0 0.15 0"/>
<feBlend mode="normal" in2="BackgroundImageFix" result="effect1_dropShadow_76_2"/>
<feColorMatrix in="SourceAlpha" type="matrix" values="0 0 0 0 0 0 0 0 0 0 0 0 0 0 0 0 0 0 127 0" result="hardAlpha"/>
<feOffset dy="4"/>
<feGaussianBlur stdDeviation="2"/>
<feComposite in2="hardAlpha" operator="out"/>
<feColorMatrix type="matrix" values="0 0 0 0 0 0 0 0 0 0 0 0 0 0 0 0 0 0 0.15 0"/>
<feBlend mode="normal" in2="effect1_dropShadow_76_2" result="effect2_dropShadow_76_2"/>
<feColorMatrix in="SourceAlpha" type="matrix" values="0 0 0 0 0 0 0 0 0 0 0 0 0 0 0 0 0 0 127 0" result="hardAlpha"/>
<feOffset dy="4"/>
<feGaussianBlur stdDeviation="10"/>
<feComposite in2="hardAlpha" operator="out"/>
<feColorMatrix type="matrix" values="0 0 0 0 0 0 0 0 0 0 0 0 0 0 0 0 0 0 0.35 0"/>
<feBlend mode="normal" in2="effect2_dropShadow_76_2" result="effect3_dropShadow_76_2"/>
<feBlend mode="normal" in="SourceGraphic" in2="effect3_dropShadow_76_2" result="shape"/>
</filter>
<radialGradient id="paint0_radial_76_2" cx="0" cy="0" r="1" gradientUnits="userSpaceOnUse" gradientTransform="translate(185) rotate(90) scale(177 370)">
<stop offset="0.460023" stop-color="#285AA6"/>
<stop offset="1" stop-color="#0C0222" stop-opacity="0"/>
</radialGradient>
<linearGradient id="paint1_linear_76_2" x1="-170.646" y1="281.646" x2="397.354" y2="849.646" gradientUnits="userSpaceOnUse">
<stop stop-color="#6DDCFF" stop-opacity="0"/>
<stop offset="0.505" stop-color="#6DDCFF"/>
<stop offset="1" stop-color="#6DDCFF" stop-opacity="0"/>
</linearGradient>
<linearGradient id="paint2_linear_76_2" x1="69" y1="-541.5" x2="-291.911" y2="-380.895" gradientUnits="userSpaceOnUse">
<stop stop-opacity="0"/>
<stop offset="0.376632" stop-opacity="0"/>
<stop offset="0.785212" stop-color="#41E2F8"/>
<stop offset="1" stop-color="white"/>
</linearGradient>
<linearGradient id="paint3_linear_76_2" x1="887.482" y1="970.5" x2="1241.79" y2="858.312" gradientUnits="userSpaceOnUse">
<stop offset="0.0622667" stop-opacity="0"/>
<stop offset="0.996954" stop-color="#41E2F8"/>
<stop offset="1" stop-color="white"/>
</linearGradient>
<linearGradient id="paint4_linear_76_2" x1="887.482" y1="970.5" x2="1241.79" y2="858.312" gradientUnits="userSpaceOnUse">
<stop offset="0.0622667" stop-opacity="0"/>
<stop offset="0.996954" stop-color="#41E2F8"/>
<stop offset="1" stop-color="white"/>
</linearGradient>
<linearGradient id="paint5_linear_76_2" x1="185.5" y1="126" x2="185.5" y2="156" gradientUnits="userSpaceOnUse">
<stop stop-opacity="0"/>
<stop offset="1" stop-color="#1C6BC8"/>
</linearGradient>
<clipPath id="clip0_76_2">
<rect width="370" height="177" fill="white"/>
</clipPath>
</defs>
</svg>
