<svg width="328" height="104" viewBox="0 0 328 104" fill="none" xmlns="http://www.w3.org/2000/svg">
<g filter="url(#filter0_d_55_906)">
<rect x="7" y="7" width="90" height="90" rx="11" fill="#FDFCFC"/>
<path d="M45.5486 64.4638C44.1597 65.2309 40.4327 65.4105 38.3743 66.1785C38.1095 66.2773 38.0687 66.6152 38.2834 66.7996L42.6115 70.5166C42.6967 70.5898 42.8087 70.6238 42.9201 70.6105L49.9776 69.7646C50.1146 69.7482 50.2333 69.6623 50.2917 69.5373L54.5755 60.3676C54.7567 59.9797 54.2831 59.6159 53.9554 59.8913L51.3841 62.0511C51.3368 62.0909 51.2817 62.1187 51.2217 62.1339C49.748 62.5085 46.9329 63.6994 45.5486 64.4638Z" fill="#D9D9D9"/>
<path d="M25.3185 28.6991C25.1467 31.1496 25.3328 33.1689 25.6785 34.7694C26.0555 36.5147 27.9964 36.1101 28.5992 34.4293C29.1722 32.8318 29.9119 31.2991 30.5785 30.0852C31.0959 29.1431 32.3245 28.8539 33.3924 28.9762C34.0681 29.0535 34.8018 29.048 35.5208 28.9937C37.0307 28.8798 38.8517 30.3948 40.0143 31.3649C41.5064 32.61 44.0533 33.3972 46.1861 33.8133C47.1833 34.0078 47.9128 34.8706 48.1646 35.855C48.8272 38.4445 50.8767 40.0922 52.5731 40.9448C53.3671 41.3439 53.9652 42.1142 53.8751 42.9983C53.6625 45.0828 53.0164 48.2797 51.4729 51.0624C49.8196 54.0431 45.3826 56.3332 42.3413 57.5086C41.4051 57.8704 40.3762 57.4031 39.96 56.4897L39.0553 54.504C38.9018 54.1672 38.6579 53.8796 38.3506 53.6732L34.795 51.2843C34.577 51.1378 34.3323 51.0357 34.0748 50.9838L31.7566 50.5166C31.6265 50.4903 31.4941 50.4771 31.3614 50.4771H31.0783C30.5876 50.4771 30.1141 50.6575 29.7477 50.984L27.045 53.3923C26.6192 53.7718 26.3756 54.3151 26.3756 54.8855V58.5735C26.3756 59.0163 26.5225 59.4465 26.7934 59.7968L29.4885 63.2826C29.6247 63.4587 29.7894 63.6109 29.9757 63.7328L33.9659 66.3437C34.2914 66.5567 34.672 66.6702 35.061 66.6702H36.0845C36.2486 66.6702 36.412 66.65 36.5711 66.6101L39.4428 65.8898L44.0059 64.9143C45.7344 64.5241 49.1913 63.6657 52.5099 61.7928C55.6779 60.0049 56.1368 55.408 56.4125 54.1457C56.4358 54.039 56.457 53.9343 56.4693 53.8258L57.4323 45.3041C57.5044 44.6666 57.8623 44.073 58.4404 43.7946C58.9716 43.5387 59.6068 43.3234 60.036 43.5087C60.2892 43.618 60.5016 43.7518 60.6802 43.9028C61.8372 44.8806 62.8441 45.4181 63.4393 44.0251C64.3021 42.0056 65.0661 39.6107 65.4899 38.1094C65.5488 37.9008 65.6424 37.706 65.7489 37.5172C67.2082 34.9316 65.7633 31.165 64.48 28.9385C64.149 28.3642 64.1302 27.6658 64.0967 27.0038C64.0044 25.1831 61.7518 23.7969 59.7142 22.9834C58.7216 22.5872 58.0795 21.4452 57.4299 20.5966C56.5798 19.4862 54.8407 18.6542 53.4417 18.1771C52.8596 17.9786 52.3998 17.5285 51.961 17.0975C49.7965 14.971 43.7354 16.3732 40.1724 17.6281C39.7006 17.7942 39.1854 17.7843 38.7067 17.639C34.5514 16.3773 31.3769 18.6199 29.8463 20.446C29.4584 20.9087 28.9207 21.2263 28.3437 21.4041C25.2357 22.3624 24.9747 26.0743 25.2941 28.1693C25.3208 28.3442 25.3308 28.5226 25.3185 28.6991Z" fill="#1D77FF"/>
<path d="M57.547 45.4435C58.2568 44.2528 60.1632 42.4837 62.1102 44.9332C62.1102 45.8687 61.806 48.4032 60.5891 51.0568C60.2849 51.397 59.8009 51.8733 58.5841 51.0568" stroke="#1D77FF" stroke-width="1.2" stroke-linecap="round"/>
<path d="M28.0714 34.3205C27.8873 37.5243 27.3805 44.4479 26.8689 49.3561C26.5117 52.7828 26.3713 56.4657 28.1593 59.3913C29.5421 61.6537 31.4595 63.6851 33.7181 64.7207C34.8539 65.2414 36.1465 65.3035 37.352 64.9457C39.5306 64.299 42.4406 62.9317 43.5515 62.1349" stroke="#1D77FF" stroke-width="1.2"/>
<ellipse cx="30.3165" cy="43.2586" rx="1.03708" ry="1.17058" fill="#1D77FF"/>
<ellipse cx="40.6873" cy="45.2095" rx="1.03708" ry="1.17058" fill="#1D77FF"/>
<path d="M25.3385 39.5517C27.8275 39.3369 32.5151 39.5906 34.6722 42.0879M25.3385 39.5517C25.2036 39.5633 25.3385 40.215 25.3385 43.6487C25.3385 43.7753 25.3336 43.9465 25.3334 44.1354C25.3319 45.1941 26.1622 45.9843 27.1401 46.3901C27.9814 46.7393 28.8759 46.9214 29.682 46.9944C30.9193 47.1065 32.1528 46.644 32.8824 45.6384C33.7402 44.4559 34.3894 42.9303 34.6722 42.0879M25.3385 39.5517L27.6201 40.3321M34.6722 42.0879L36.7464 42.4781M36.7464 42.4781C39.028 41.8278 44.3793 41.2295 47.532 44.0389M36.7464 42.4781C36.4385 43.6365 36.6966 45.1034 37.0692 46.3156C37.4483 47.5487 38.3273 48.5666 39.5771 48.8864C40.37 49.0893 41.2813 49.2348 42.1305 49.3342C43.4771 49.4918 45.2888 49.1173 45.9905 47.9573V47.9573C46.1649 47.6689 46.1418 47.5881 46.2647 47.2743L47.532 44.0389M47.532 44.0389H53.9619" stroke="#1D77FF" stroke-width="1.2"/>
<path d="M28.0349 38.5762L30.9388 38.5762L34.0085 39.2397" stroke="#1D77FF" stroke-width="1.2" stroke-linecap="round"/>
<path d="M37.9909 39.7468L41.5169 39.9419L45.2504 40.5272" stroke="#1D77FF" stroke-width="1.2" stroke-linecap="round"/>
<path d="M33.657 44.8092C33.1424 45.7508 31.9348 47.7874 31.2209 48.4016C30.507 49.0159 31.0052 49.7662 31.3436 50.0645C31.4564 50.164 32.0795 50.4743 33.6698 50.9198" stroke="#1D77FF" stroke-width="1.2"/>
<path d="M36.342 55.3368C34.3753 55.0052 31.6478 54.2271 30.5299 53.8796C30.3117 53.8921 29.934 54.0128 30.1692 54.3948C30.4044 54.7769 30.4023 55.6724 31.1462 56.33C31.7074 56.8746 34.6535 58.2651 35.7544 57.4104C36.8552 56.5558 36.6048 55.6719 36.342 55.3368Z" fill="#FCFCFC"/>
<path d="M56.4829 71.6914C54.2827 74.8524 43.2128 77.4359 37.9528 78.3325L39.3119 75.085L37.2049 68.21L36.6035 68.4561C33.7018 69.482 32.0703 71.9035 31.6173 72.986C31.6979 77.3666 35.1338 79.3515 36.8417 79.7964C46.652 79.6033 55.6763 74.1745 58.9621 71.4842C62.7561 68.2944 70.6121 61.2266 71.6847 58.4732C72.7573 55.7198 69.5178 56.108 67.764 56.6463L60.1885 60.2174L60.6474 65.0757C60.176 65.9638 58.6831 68.5304 56.4829 71.6914Z" fill="#1D77FF"/>
<path d="M36.8417 79.7964C46.652 79.6033 55.6763 74.1745 58.9621 71.4842C62.7561 68.2944 70.6121 61.2266 71.6847 58.4732C72.7573 55.7198 69.5178 56.108 67.764 56.6463L60.1885 60.2174L60.6474 65.0757C60.176 65.9638 58.6831 68.5304 56.4829 71.6914C54.2827 74.8524 43.2128 77.4359 37.9528 78.3325L39.3119 75.085L37.2049 68.21L36.6035 68.4561C33.7018 69.482 32.0703 71.9035 31.6173 72.986C31.6979 77.3666 35.1338 79.3515 36.8417 79.7964ZM36.8417 79.7964C36.453 80.09 34.93 79.8386 31.9477 76.4839M33.624 65.5712C31.8226 67.811 28.9655 73.1292 31.9477 76.4839M31.9477 76.4839L23.9176 81.8558L19.0446 91.3074M59.9131 57.3024C64.9879 55.1808 74.8455 52.2547 73.6773 57.5232C75.9407 58.7051 80.6547 61.2883 81.404 62.1658C82.3405 63.2628 84.9389 68.7257 81.6653 71.5455M81.6653 71.5455C77.5684 72.9978 66.9358 76.5371 57.1804 79.076M81.6653 71.5455C84.0914 74.0162 88.3628 84.3385 87.6991 91.3074M53.8061 76.42L54.0814 79.335M54.7055 85.9422L54.0814 79.335M54.0814 79.335C48.1429 81.4637 37.1927 84.3651 33.5036 81.9328M32.2598 79.7875C32.3193 80.748 32.7665 81.4468 33.5036 81.9328M33.5036 81.9328L34.0454 87.6688" stroke="#1D77FF" stroke-width="1.2" stroke-linecap="round"/>
<path d="M37.4403 66.293L39.9926 75.6772L38.9365 77.7241C42.8252 77.0073 51.3437 75.0419 54.3078 72.9139C57.2719 70.7859 59.4854 66.7358 60.2215 64.9768C59.4335 61.7782 58.0734 54.5796 58.9366 51.3736" stroke="#1D77FF" stroke-width="1.2"/>
</g>
<g filter="url(#filter1_d_55_906)">
<rect x="119" y="7" width="90" height="90" rx="11" fill="#FDFCFC"/>
<path d="M157.549 64.4638C156.16 65.2309 152.433 65.4105 150.374 66.1785C150.11 66.2773 150.069 66.6152 150.283 66.7996L154.611 70.5166C154.697 70.5898 154.809 70.6238 154.92 70.6105L161.978 69.7646C162.115 69.7482 162.233 69.6623 162.292 69.5373L166.575 60.3676C166.757 59.9797 166.283 59.6159 165.955 59.8913L163.384 62.0511C163.337 62.0909 163.282 62.1187 163.222 62.1339C161.748 62.5085 158.933 63.6994 157.549 64.4638Z" fill="#D9D9D9"/>
<path d="M137.318 28.6991C137.147 31.1496 137.333 33.1689 137.678 34.7694C138.055 36.5147 139.996 36.1101 140.599 34.4293C141.172 32.8318 141.912 31.2991 142.578 30.0852C143.096 29.1431 144.325 28.8539 145.392 28.9762C146.068 29.0535 146.802 29.048 147.521 28.9937C149.031 28.8798 150.852 30.3948 152.014 31.3649C153.506 32.61 156.053 33.3972 158.186 33.8133C159.183 34.0078 159.913 34.8706 160.165 35.855C160.827 38.4445 162.877 40.0922 164.573 40.9448C165.367 41.3439 165.965 42.1142 165.875 42.9983C165.663 45.0828 165.016 48.2797 163.473 51.0624C161.82 54.0431 157.383 56.3332 154.341 57.5086C153.405 57.8704 152.376 57.4031 151.96 56.4897L151.055 54.504C150.902 54.1672 150.658 53.8796 150.351 53.6732L146.795 51.2843C146.577 51.1378 146.332 51.0357 146.075 50.9838L143.757 50.5166C143.627 50.4903 143.494 50.4771 143.361 50.4771H143.078C142.588 50.4771 142.114 50.6575 141.748 50.984L139.045 53.3923C138.619 53.7718 138.376 54.3151 138.376 54.8855V58.5735C138.376 59.0163 138.523 59.4465 138.793 59.7968L141.489 63.2826C141.625 63.4587 141.789 63.6109 141.976 63.7328L145.966 66.3437C146.291 66.5567 146.672 66.6702 147.061 66.6702H148.085C148.249 66.6702 148.412 66.65 148.571 66.6101L151.443 65.8898L156.006 64.9143C157.734 64.5241 161.191 63.6657 164.51 61.7928C167.678 60.0049 168.137 55.408 168.412 54.1457C168.436 54.039 168.457 53.9343 168.469 53.8258L169.432 45.3041C169.504 44.6666 169.862 44.073 170.44 43.7946C170.972 43.5387 171.607 43.3234 172.036 43.5087C172.289 43.618 172.502 43.7518 172.68 43.9028C173.837 44.8806 174.844 45.4181 175.439 44.0251C176.302 42.0056 177.066 39.6107 177.49 38.1094C177.549 37.9008 177.642 37.706 177.749 37.5172C179.208 34.9316 177.763 31.165 176.48 28.9385C176.149 28.3642 176.13 27.6658 176.097 27.0038C176.004 25.1831 173.752 23.7969 171.714 22.9834C170.722 22.5872 170.08 21.4452 169.43 20.5966C168.58 19.4862 166.841 18.6542 165.442 18.1771C164.86 17.9786 164.4 17.5285 163.961 17.0975C161.796 14.971 155.735 16.3732 152.172 17.6281C151.701 17.7942 151.185 17.7843 150.707 17.639C146.551 16.3773 143.377 18.6199 141.846 20.446C141.458 20.9087 140.921 21.2263 140.344 21.4041C137.236 22.3624 136.975 26.0743 137.294 28.1693C137.321 28.3442 137.331 28.5226 137.318 28.6991Z" fill="black"/>
<path d="M169.547 45.4435C170.257 44.2528 172.163 42.4837 174.11 44.9332C174.11 45.8687 173.806 48.4032 172.589 51.0568C172.285 51.397 171.801 51.8733 170.584 51.0568" stroke="black" stroke-width="1.2" stroke-linecap="round"/>
<path d="M140.071 34.3205C139.887 37.5243 139.381 44.4479 138.869 49.3561C138.512 52.7828 138.371 56.4657 140.159 59.3913C141.542 61.6537 143.459 63.6851 145.718 64.7207C146.854 65.2414 148.147 65.3035 149.352 64.9457C151.531 64.299 154.441 62.9317 155.552 62.1349" stroke="black" stroke-width="1.2"/>
<ellipse cx="142.316" cy="43.2586" rx="1.03708" ry="1.17058" fill="black"/>
<ellipse cx="152.687" cy="45.2095" rx="1.03708" ry="1.17058" fill="black"/>
<path d="M137.339 39.5517C139.828 39.3369 144.515 39.5906 146.672 42.0879M137.339 39.5517C137.204 39.5633 137.339 40.215 137.339 43.6487C137.339 43.7753 137.334 43.9465 137.333 44.1354C137.332 45.1941 138.162 45.9843 139.14 46.3901C139.981 46.7393 140.876 46.9214 141.682 46.9944C142.919 47.1065 144.153 46.644 144.882 45.6384C145.74 44.4559 146.389 42.9303 146.672 42.0879M137.339 39.5517L139.62 40.3321M146.672 42.0879L148.746 42.4781M148.746 42.4781C151.028 41.8278 156.379 41.2295 159.532 44.0389M148.746 42.4781C148.439 43.6365 148.697 45.1034 149.069 46.3156C149.448 47.5487 150.327 48.5666 151.577 48.8864C152.37 49.0893 153.281 49.2348 154.131 49.3342C155.477 49.4918 157.289 49.1173 157.991 47.9573V47.9573C158.165 47.6689 158.142 47.5881 158.265 47.2743L159.532 44.0389M159.532 44.0389H165.962" stroke="black" stroke-width="1.2"/>
<path d="M140.035 38.5762L142.939 38.5762L146.008 39.2397" stroke="black" stroke-width="1.2" stroke-linecap="round"/>
<path d="M149.991 39.7468L153.517 39.9419L157.25 40.5272" stroke="black" stroke-width="1.2" stroke-linecap="round"/>
<path d="M145.657 44.8092C145.142 45.7508 143.935 47.7874 143.221 48.4016C142.507 49.0159 143.005 49.7662 143.344 50.0645C143.456 50.164 144.079 50.4743 145.67 50.9198" stroke="black" stroke-width="1.2"/>
<path d="M148.342 55.3368C146.375 55.0052 143.648 54.2271 142.53 53.8796C142.312 53.8921 141.934 54.0128 142.169 54.3948C142.404 54.7769 142.402 55.6724 143.146 56.33C143.707 56.8746 146.654 58.2651 147.754 57.4104C148.855 56.5558 148.605 55.6719 148.342 55.3368Z" fill="#F3F3F3"/>
<path d="M168.483 71.6914C166.283 74.8524 155.213 77.4359 149.953 78.3325L151.312 75.085L149.205 68.21L148.603 68.4561C145.702 69.482 144.07 71.9035 143.617 72.986C143.698 77.3666 147.134 79.3515 148.842 79.7964C158.652 79.6033 167.676 74.1745 170.962 71.4842C174.756 68.2944 182.612 61.2266 183.685 58.4732C184.757 55.7198 181.518 56.108 179.764 56.6463L172.188 60.2174L172.647 65.0757C172.176 65.9638 170.683 68.5304 168.483 71.6914Z" fill="black"/>
<path d="M148.842 79.7964C158.652 79.6033 167.676 74.1745 170.962 71.4842C174.756 68.2944 182.612 61.2266 183.685 58.4732C184.757 55.7198 181.518 56.108 179.764 56.6463L172.188 60.2174L172.647 65.0757C172.176 65.9638 170.683 68.5304 168.483 71.6914C166.283 74.8524 155.213 77.4359 149.953 78.3325L151.312 75.085L149.205 68.21L148.603 68.4561C145.702 69.482 144.07 71.9035 143.617 72.986C143.698 77.3666 147.134 79.3515 148.842 79.7964ZM148.842 79.7964C148.453 80.09 146.93 79.8386 143.948 76.4839M145.624 65.5712C143.823 67.811 140.965 73.1292 143.948 76.4839M143.948 76.4839L135.918 81.8558L131.045 91.3074M171.913 57.3024C176.988 55.1808 186.846 52.2547 185.677 57.5232C187.941 58.7051 192.655 61.2883 193.404 62.1658C194.341 63.2628 196.939 68.7257 193.665 71.5455M193.665 71.5455C189.568 72.9978 178.936 76.5371 169.18 79.076M193.665 71.5455C196.091 74.0162 200.363 84.3385 199.699 91.3074M165.806 76.42L166.081 79.335M166.706 85.9422L166.081 79.335M166.081 79.335C160.143 81.4637 149.193 84.3651 145.504 81.9328M144.26 79.7875C144.319 80.748 144.767 81.4468 145.504 81.9328M145.504 81.9328L146.045 87.6688" stroke="black" stroke-width="1.2" stroke-linecap="round"/>
<path d="M149.44 66.293L151.993 75.6772L150.936 77.7241C154.825 77.0073 163.344 75.0419 166.308 72.9139C169.272 70.7859 171.485 66.7358 172.222 64.9768C171.434 61.7782 170.073 54.5796 170.937 51.3736" stroke="black" stroke-width="1.2"/>
</g>
<g filter="url(#filter2_d_55_906)">
<rect x="231" y="7" width="90" height="90" rx="11" fill="#FDFCFC"/>
<path d="M269.549 64.4638C268.16 65.2309 264.433 65.4105 262.374 66.1785C262.11 66.2773 262.069 66.6152 262.283 66.7996L266.611 70.5166C266.697 70.5898 266.809 70.6238 266.92 70.6105L273.978 69.7646C274.115 69.7482 274.233 69.6623 274.292 69.5373L278.576 60.3676C278.757 59.9797 278.283 59.6159 277.955 59.8913L275.384 62.0511C275.337 62.0909 275.282 62.1187 275.222 62.1339C273.748 62.5085 270.933 63.6994 269.549 64.4638Z" fill="#D9D9D9"/>
<path d="M249.318 28.6991C249.147 31.1496 249.333 33.1689 249.678 34.7694C250.055 36.5147 251.996 36.1101 252.599 34.4293C253.172 32.8318 253.912 31.2991 254.578 30.0852C255.096 29.1431 256.325 28.8539 257.392 28.9762C258.068 29.0535 258.802 29.048 259.521 28.9937C261.031 28.8798 262.852 30.3948 264.014 31.3649C265.506 32.61 268.053 33.3972 270.186 33.8133C271.183 34.0078 271.913 34.8706 272.165 35.855C272.827 38.4445 274.877 40.0922 276.573 40.9448C277.367 41.3439 277.965 42.1142 277.875 42.9983C277.663 45.0828 277.016 48.2797 275.473 51.0624C273.82 54.0431 269.383 56.3332 266.341 57.5086C265.405 57.8704 264.376 57.4031 263.96 56.4897L263.055 54.504C262.902 54.1672 262.658 53.8796 262.351 53.6732L258.795 51.2843C258.577 51.1378 258.332 51.0357 258.075 50.9838L255.757 50.5166C255.627 50.4903 255.494 50.4771 255.361 50.4771H255.078C254.588 50.4771 254.114 50.6575 253.748 50.984L251.045 53.3923C250.619 53.7718 250.376 54.3151 250.376 54.8855V58.5735C250.376 59.0163 250.523 59.4465 250.793 59.7968L253.489 63.2826C253.625 63.4587 253.789 63.6109 253.976 63.7328L257.966 66.3437C258.291 66.5567 258.672 66.6702 259.061 66.6702H260.085C260.249 66.6702 260.412 66.65 260.571 66.6101L263.443 65.8898L268.006 64.9143C269.734 64.5241 273.191 63.6657 276.51 61.7928C279.678 60.0049 280.137 55.408 280.412 54.1457C280.436 54.039 280.457 53.9343 280.469 53.8258L281.432 45.3041C281.504 44.6666 281.862 44.073 282.44 43.7946C282.972 43.5387 283.607 43.3234 284.036 43.5087C284.289 43.618 284.502 43.7518 284.68 43.9028C285.837 44.8806 286.844 45.4181 287.439 44.0251C288.302 42.0056 289.066 39.6107 289.49 38.1094C289.549 37.9008 289.642 37.706 289.749 37.5172C291.208 34.9316 289.763 31.165 288.48 28.9385C288.149 28.3642 288.13 27.6658 288.097 27.0038C288.004 25.1831 285.752 23.7969 283.714 22.9834C282.722 22.5872 282.08 21.4452 281.43 20.5966C280.58 19.4862 278.841 18.6542 277.442 18.1771C276.86 17.9786 276.4 17.5285 275.961 17.0975C273.796 14.971 267.735 16.3732 264.172 17.6281C263.701 17.7942 263.185 17.7843 262.707 17.639C258.551 16.3773 255.377 18.6199 253.846 20.446C253.458 20.9087 252.921 21.2263 252.344 21.4041C249.236 22.3624 248.975 26.0743 249.294 28.1693C249.321 28.3442 249.331 28.5226 249.318 28.6991Z" fill="#E04266"/>
<path d="M281.547 45.4435C282.257 44.2528 284.163 42.4837 286.11 44.9332C286.11 45.8687 285.806 48.4032 284.589 51.0568C284.285 51.397 283.801 51.8733 282.584 51.0568" stroke="#E04266" stroke-width="1.2" stroke-linecap="round"/>
<path d="M252.071 34.3205C251.887 37.5243 251.381 44.4479 250.869 49.3561C250.512 52.7828 250.371 56.4657 252.159 59.3913C253.542 61.6537 255.459 63.6851 257.718 64.7207C258.854 65.2414 260.147 65.3035 261.352 64.9457C263.531 64.299 266.441 62.9317 267.552 62.1349" stroke="#E04266" stroke-width="1.2"/>
<ellipse cx="254.316" cy="43.2586" rx="1.03708" ry="1.17058" fill="#E04266"/>
<ellipse cx="264.687" cy="45.2095" rx="1.03708" ry="1.17058" fill="#E04266"/>
<path d="M249.339 39.5517C251.828 39.3369 256.515 39.5906 258.672 42.0879M249.339 39.5517C249.204 39.5633 249.339 40.215 249.339 43.6487C249.339 43.7753 249.334 43.9465 249.333 44.1354C249.332 45.1941 250.162 45.9843 251.14 46.3901C251.981 46.7393 252.876 46.9214 253.682 46.9944C254.919 47.1065 256.153 46.644 256.882 45.6384C257.74 44.4559 258.389 42.9303 258.672 42.0879M249.339 39.5517L251.62 40.3321M258.672 42.0879L260.746 42.4781M260.746 42.4781C263.028 41.8278 268.379 41.2295 271.532 44.0389M260.746 42.4781C260.439 43.6365 260.697 45.1034 261.069 46.3156C261.448 47.5487 262.327 48.5666 263.577 48.8864C264.37 49.0893 265.281 49.2348 266.131 49.3342C267.477 49.4918 269.289 49.1173 269.991 47.9573V47.9573C270.165 47.6689 270.142 47.5881 270.265 47.2743L271.532 44.0389M271.532 44.0389H277.962" stroke="#E04266" stroke-width="1.2"/>
<path d="M252.035 38.5762L254.939 38.5762L258.008 39.2397" stroke="#E04266" stroke-width="1.2" stroke-linecap="round"/>
<path d="M261.991 39.7468L265.517 39.9419L269.25 40.5272" stroke="#E04266" stroke-width="1.2" stroke-linecap="round"/>
<path d="M257.657 44.8092C257.142 45.7508 255.935 47.7874 255.221 48.4016C254.507 49.0159 255.005 49.7662 255.344 50.0645C255.456 50.164 256.08 50.4743 257.67 50.9198" stroke="#E04266" stroke-width="1.2"/>
<path d="M260.342 55.3368C258.375 55.0052 255.648 54.2271 254.53 53.8796C254.312 53.8921 253.934 54.0128 254.169 54.3948C254.404 54.7769 254.402 55.6724 255.146 56.33C255.707 56.8746 258.654 58.2651 259.754 57.4104C260.855 56.5558 260.605 55.6719 260.342 55.3368Z" fill="#F3F3F3"/>
<path d="M280.483 71.6914C278.283 74.8524 267.213 77.4359 261.953 78.3325L263.312 75.085L261.205 68.21L260.603 68.4561C257.702 69.482 256.07 71.9035 255.617 72.986C255.698 77.3666 259.134 79.3515 260.842 79.7964C270.652 79.6033 279.676 74.1745 282.962 71.4842C286.756 68.2944 294.612 61.2266 295.685 58.4732C296.757 55.7198 293.518 56.108 291.764 56.6463L284.188 60.2174L284.647 65.0757C284.176 65.9638 282.683 68.5304 280.483 71.6914Z" fill="#E04266"/>
<path d="M260.842 79.7964C270.652 79.6033 279.676 74.1745 282.962 71.4842C286.756 68.2944 294.612 61.2266 295.685 58.4732C296.757 55.7198 293.518 56.108 291.764 56.6463L284.188 60.2174L284.647 65.0757C284.176 65.9638 282.683 68.5304 280.483 71.6914C278.283 74.8524 267.213 77.4359 261.953 78.3325L263.312 75.085L261.205 68.21L260.603 68.4561C257.702 69.482 256.07 71.9035 255.617 72.986C255.698 77.3666 259.134 79.3515 260.842 79.7964ZM260.842 79.7964C260.453 80.09 258.93 79.8386 255.948 76.4839M257.624 65.5712C255.823 67.811 252.965 73.1292 255.948 76.4839M255.948 76.4839L247.918 81.8558L243.045 91.3074M283.913 57.3024C288.988 55.1808 298.846 52.2547 297.677 57.5232C299.941 58.7051 304.655 61.2883 305.404 62.1658C306.341 63.2628 308.939 68.7257 305.665 71.5455M305.665 71.5455C301.568 72.9978 290.936 76.5371 281.18 79.076M305.665 71.5455C308.091 74.0162 312.363 84.3385 311.699 91.3074M277.806 76.42L278.081 79.335M278.706 85.9422L278.081 79.335M278.081 79.335C272.143 81.4637 261.193 84.3651 257.504 81.9328M256.26 79.7875C256.319 80.748 256.767 81.4468 257.504 81.9328M257.504 81.9328L258.045 87.6688" stroke="#E04266" stroke-width="1.2" stroke-linecap="round"/>
<path d="M261.44 66.293L263.993 75.6772L262.936 77.7241C266.825 77.0073 275.344 75.0419 278.308 72.9139C281.272 70.7859 283.485 66.7358 284.222 64.9768C283.434 61.7782 282.073 54.5796 282.937 51.3736" stroke="#E04266" stroke-width="1.2"/>
</g>
<defs>
<filter id="filter0_d_55_906" x="0" y="0" width="104" height="104" filterUnits="userSpaceOnUse" color-interpolation-filters="sRGB">
<feFlood flood-opacity="0" result="BackgroundImageFix"/>
<feColorMatrix in="SourceAlpha" type="matrix" values="0 0 0 0 0 0 0 0 0 0 0 0 0 0 0 0 0 0 127 0" result="hardAlpha"/>
<feOffset/>
<feGaussianBlur stdDeviation="3.5"/>
<feComposite in2="hardAlpha" operator="out"/>
<feColorMatrix type="matrix" values="0 0 0 0 0 0 0 0 0 0 0 0 0 0 0 0 0 0 0.21 0"/>
<feBlend mode="normal" in2="BackgroundImageFix" result="effect1_dropShadow_55_906"/>
<feBlend mode="normal" in="SourceGraphic" in2="effect1_dropShadow_55_906" result="shape"/>
</filter>
<filter id="filter1_d_55_906" x="112" y="0" width="104" height="104" filterUnits="userSpaceOnUse" color-interpolation-filters="sRGB">
<feFlood flood-opacity="0" result="BackgroundImageFix"/>
<feColorMatrix in="SourceAlpha" type="matrix" values="0 0 0 0 0 0 0 0 0 0 0 0 0 0 0 0 0 0 127 0" result="hardAlpha"/>
<feOffset/>
<feGaussianBlur stdDeviation="3.5"/>
<feComposite in2="hardAlpha" operator="out"/>
<feColorMatrix type="matrix" values="0 0 0 0 0 0 0 0 0 0 0 0 0 0 0 0 0 0 0.21 0"/>
<feBlend mode="normal" in2="BackgroundImageFix" result="effect1_dropShadow_55_906"/>
<feBlend mode="normal" in="SourceGraphic" in2="effect1_dropShadow_55_906" result="shape"/>
</filter>
<filter id="filter2_d_55_906" x="224" y="0" width="104" height="104" filterUnits="userSpaceOnUse" color-interpolation-filters="sRGB">
<feFlood flood-opacity="0" result="BackgroundImageFix"/>
<feColorMatrix in="SourceAlpha" type="matrix" values="0 0 0 0 0 0 0 0 0 0 0 0 0 0 0 0 0 0 127 0" result="hardAlpha"/>
<feOffset/>
<feGaussianBlur stdDeviation="3.5"/>
<feComposite in2="hardAlpha" operator="out"/>
<feColorMatrix type="matrix" values="0 0 0 0 0 0 0 0 0 0 0 0 0 0 0 0 0 0 0.21 0"/>
<feBlend mode="normal" in2="BackgroundImageFix" result="effect1_dropShadow_55_906"/>
<feBlend mode="normal" in="SourceGraphic" in2="effect1_dropShadow_55_906" result="shape"/>
</filter>
</defs>
</svg>
