<svg width="335" height="46" viewBox="0 0 335 46" fill="none" xmlns="http://www.w3.org/2000/svg">
<path d="M13.762 45V8.583H0.647V1.69H34.868V8.583H21.692V45H13.762ZM50.485 45.732C40.725 45.732 34.503 39.022 34.503 28.713C34.503 18.465 40.725 11.694 50.302 11.694C59.635 11.694 65.796 18.16 65.796 29.14V30.909H42.616C42.921 36.643 45.91 39.51 50.546 39.51C54.023 39.51 56.402 37.863 57.317 34.996L65.308 35.484C63.539 41.828 57.988 45.732 50.485 45.732ZM57.683 25.663C57.317 20.356 54.45 17.855 50.302 17.855C46.093 17.855 43.226 20.6 42.616 25.663H57.683ZM67.5731 45L79.2851 28.408L67.9391 12.426H76.4181L83.9211 23.528L91.1801 12.426H99.8421L88.6181 28.469L100.208 45H91.7901L83.9821 33.288L76.1741 45H67.5731ZM118.428 45C111.962 45 108.973 42.133 108.973 35.667V18.465H103.849V12.426H108.973V4.801H116.781V12.426H125.382V18.465H116.781V34.935C116.781 37.985 118.062 38.961 120.807 38.961H125.382V45H118.428ZM162.96 45.976C152.163 45.976 145.636 39.937 144.904 30.909L152.956 30.421C153.749 36.033 157.043 39.144 163.082 39.144C168.145 39.144 171.134 37.253 171.134 33.532C171.134 30.177 169.426 28.164 160.581 26.09C149.845 23.65 145.819 20.6 145.819 13.524C145.819 5.96 151.675 0.713999 161.435 0.713999C171.744 0.713999 177.478 6.753 178.393 15.11L170.402 15.476C169.853 10.779 166.742 7.546 161.313 7.546C156.677 7.546 153.871 9.864 153.871 13.219C153.871 16.757 155.945 18.099 163.631 19.868C175.282 22.369 179.186 26.639 179.186 33.105C179.186 41.035 172.72 45.976 162.96 45.976ZM197.716 45C191.25 45 188.261 42.133 188.261 35.667V18.465H183.137V12.426H188.261V4.801H196.069V12.426H204.67V18.465H196.069V34.935C196.069 37.985 197.35 38.961 200.095 38.961H204.67V45H197.716ZM211.111 45V12.426H218.431L218.614 18.709C219.895 14.317 222.457 12.426 226.422 12.426H229.411V19.136H226.361C221.359 19.136 218.919 21.21 218.919 26.212V45H211.111ZM248.439 45.732C238.74 45.732 232.396 39.022 232.396 28.713C232.396 18.404 238.74 11.694 248.439 11.694C258.077 11.694 264.421 18.404 264.421 28.713C264.421 39.022 258.077 45.732 248.439 45.732ZM248.439 39.388C253.441 39.388 256.369 35.484 256.369 28.713C256.369 22.003 253.441 18.038 248.439 18.038C243.376 18.038 240.509 22.003 240.509 28.713C240.509 35.484 243.376 39.388 248.439 39.388ZM270.741 45V1.69H278.549V27.127L291.908 12.426H301.546L288.797 25.968L301.973 45H293.189L283.673 30.604L278.549 36.033V45H270.741ZM319.326 45.732C309.566 45.732 303.344 39.022 303.344 28.713C303.344 18.465 309.566 11.694 319.143 11.694C328.476 11.694 334.637 18.16 334.637 29.14V30.909H311.457C311.762 36.643 314.751 39.51 319.387 39.51C322.864 39.51 325.243 37.863 326.158 34.996L334.149 35.484C332.38 41.828 326.829 45.732 319.326 45.732ZM326.524 25.663C326.158 20.356 323.291 17.855 319.143 17.855C314.934 17.855 312.067 20.6 311.457 25.663H326.524Z" fill="black"/>
</svg>
