<svg xmlns="http://www.w3.org/2000/svg" width="18" height="18" fill="currentColor" viewBox="0 0 18 18"><path d="M4.413 13.99c-.225-.15-.419-.342-.645-.613a37.902 37.902 0 0 1-.35-.434c-.347-.43-.566-.63-.792-.711a.75.75 0 1 1 .507-1.412c.564.202.946.55 1.46 1.19-.07-.087.255.32.325.404.143.171.247.274.33.33.153.102.44.146.862.104.018-.287.071-.565.152-.821-2.226-.544-3.486-1.98-3.486-4.797 0-.93.277-1.767.793-2.47-.163-.67-.138-1.48.227-2.393a.75.75 0 0 1 .472-.437c.061-.018.095-.026.156-.035.602-.093 1.453.128 2.562.822A8.798 8.798 0 0 1 9 2.487a8.8 8.8 0 0 1 2.013.23c1.107-.7 1.96-.92 2.566-.822.064.01.118.023.164.038.21.07.38.228.462.434.365.912.39 1.723.226 2.393.519.702.794 1.534.794 2.47 0 2.817-1.256 4.248-3.482 4.794.094.311.143.659.143 1.035a224.575 224.575 0 0 1-.009 2.037.75.75 0 0 1-.014 1.468c-.854.17-1.488-.399-1.488-1.143l.002-.335.004-.53c.003-.53.005-1.002.005-1.497 0-.523-.137-.864-.32-1.02a.75.75 0 0 1 .407-1.314c2.225-.25 3.252-1.112 3.252-3.495 0-.716-.234-1.308-.685-1.804a.75.75 0 0 1-.142-.783c.125-.31.178-.718.072-1.21l-.008.002c-.368.104-.832.33-1.393.711a.75.75 0 0 1-.625.102A7.22 7.22 0 0 0 9 3.986c-.668 0-1.329.089-1.944.262a.75.75 0 0 1-.622-.1c-.564-.38-1.03-.605-1.402-.71-.107.49-.054.895.07 1.205a.75.75 0 0 1-.142.784 2.593 2.593 0 0 0-.685 1.803c0 2.379 1.028 3.246 3.241 3.495a.75.75 0 0 1 .409 1.311c-.145.126-.322.549-.322 1.023v2.362c0 .74-.626 1.294-1.47 1.146a.75.75 0 0 1-.03-1.472v-.742c-.683.046-1.247-.066-1.691-.363Z"/></svg>