<svg xmlns="http://www.w3.org/2000/svg" width="18" height="18" fill="currentColor" viewBox="0 0 18 18"><path d="M11.512 4.162a2.175 2.175 0 0 0-2.174 2.135L9.317 7.48a.45.45 0 0 1-.511.437l-1.17-.16c-1.54-.21-3.017-.918-4.433-2.098-.448 2.482.427 4.202 2.537 5.529l1.31.824a.45.45 0 0 1 .026.744l-1.193.872c.71.045 1.384.013 1.943-.098 3.538-.706 5.891-3.369 5.891-7.76 0-.36-.759-1.607-2.205-1.607ZM7.838 6.271a3.675 3.675 0 0 1 6.288-2.517c.534-.004.988.13 2.002-.484-.251 1.23-.375 1.764-.91 2.498 0 5.731-3.524 8.519-7.098 9.232-2.451.489-6.015-.314-7.036-1.381.52-.04 2.635-.268 3.858-1.162C3.907 11.774-.21 9.35 2.496 2.84c1.27 1.482 2.557 2.491 3.863 3.027.868.356 1.08.35 1.479.404Z"/></svg>