<svg width="77" height="89" viewBox="0 0 77 89" fill="none" xmlns="http://www.w3.org/2000/svg">
<path d="M31.1902 53.2504C29.7116 54.1004 25.7226 54.2938 23.562 55.1562C23.3052 55.2587 23.2655 55.588 23.4718 55.7724L28.0954 59.9058C28.1816 59.9829 28.2969 60.0189 28.4117 60.0046L35.8746 59.0735C36.0132 59.0562 36.1327 58.9679 36.1898 58.8406L40.7785 48.616C40.9543 48.2244 40.4733 47.8683 40.1501 48.1509L37.3465 50.6023C37.2988 50.644 37.2429 50.6733 37.1816 50.6895C35.6268 51.1002 32.6523 52.4099 31.1902 53.2504Z" fill="#D9D9D9"/>
<path d="M9.83865 13.9166C9.64268 16.7783 9.87295 19.1064 10.2797 20.9172C10.6753 22.6783 12.6273 22.2736 13.1943 20.56C13.8247 18.6549 14.6779 16.8138 15.4346 15.3891C15.952 14.415 17.2204 14.1158 18.3148 14.2524C19.0974 14.3502 19.9563 14.3365 20.7888 14.2616C22.2984 14.1257 24.0422 15.632 25.1326 16.6849C26.6917 18.1905 29.5927 19.1222 31.9712 19.5943C32.9643 19.7915 33.6916 20.6482 33.9098 21.6369C34.5722 24.6376 36.8558 26.5178 38.7014 27.4583C39.486 27.8581 40.0744 28.6231 39.9948 29.5001C39.7875 31.7842 39.1125 35.3935 37.4436 38.5254C35.6886 41.8189 30.962 44.3452 27.7506 45.63C26.8 46.0103 25.7471 45.5304 25.3365 44.5925L24.3137 42.2557C24.1663 41.919 23.929 41.6294 23.6278 41.4188L19.8258 38.7598C19.6047 38.6051 19.3545 38.4968 19.0903 38.4414L16.6286 37.9249C16.4936 37.8966 16.3559 37.8823 16.2179 37.8823H15.8966C15.3922 37.8823 14.9064 38.0729 14.5365 38.416L11.5919 41.1473C11.1839 41.5258 10.952 42.0571 10.952 42.6136V46.8672C10.952 47.2968 11.0903 47.715 11.3465 48.0598L14.254 51.9742C14.3871 52.1533 14.5492 52.3089 14.7337 52.4346L18.9812 55.3276C19.3131 55.5537 19.7054 55.6747 20.1071 55.6747H21.2043C21.3748 55.6747 21.5446 55.6529 21.7095 55.6098L24.7452 54.8172L29.5618 53.7454C31.3863 53.3166 35.0353 52.3734 38.5383 50.3155C41.8993 48.341 42.3715 43.2486 42.662 41.8923C42.6841 41.7894 42.7038 41.6883 42.7152 41.5837L43.7467 32.0824C43.815 31.4537 44.1619 30.8679 44.7238 30.5776C45.2987 30.2806 46.0091 30.0129 46.4825 30.2256C46.8131 30.3742 47.0777 30.5639 47.2907 30.7797C48.3758 31.879 49.4179 32.372 50.0115 30.946C50.9553 28.679 51.7943 25.9396 52.2497 24.2549C52.3048 24.0511 52.3929 23.8596 52.495 23.6748C54.0899 20.7874 52.4832 16.5385 51.1082 14.0997C50.7937 13.542 50.768 12.8738 50.7718 12.2336C50.7843 10.1193 48.2415 8.52253 46.005 7.61663C45.0273 7.2206 44.4243 6.11225 43.8525 5.22581C42.9999 3.90409 41.0273 2.92052 39.4728 2.37483C38.8895 2.17006 38.4319 1.71525 38.0119 1.26161C35.7718 -1.15795 29.2889 0.40326 25.5005 1.79429C25.0131 1.97324 24.4773 1.96265 23.9825 1.8054C19.5528 0.397613 16.1771 2.91786 14.5755 4.93513C14.1942 5.41536 13.6513 5.74374 13.0659 5.92636C9.73378 6.96594 9.46924 11.103 9.81571 13.4066C9.841 13.5748 9.85027 13.747 9.83865 13.9166Z" fill="black"/>
<path d="M43.8552 32.3515C44.6044 31.0432 46.6167 29.0994 48.6718 31.7908C48.6718 32.8188 48.3507 35.6036 47.0663 38.5193C46.7452 38.8931 46.2343 39.4164 44.9499 38.5193" stroke="black" stroke-width="1.4" stroke-linecap="round"/>
<path d="M12.742 20.13C12.539 23.8096 11.9636 31.9549 11.3994 37.3689C11.0556 40.6675 10.9219 44.1812 12.5034 47.0903C13.9864 49.8183 16.1493 52.3258 18.7331 53.5472C19.9105 54.1038 21.2565 54.1729 22.5044 53.7903C24.8077 53.0841 27.9038 51.5712 29.0822 50.6915" stroke="black" stroke-width="1.4"/>
<ellipse cx="15.1119" cy="29.9507" rx="1.09469" ry="1.2862" fill="black"/>
<ellipse cx="26.0588" cy="32.0944" rx="1.09469" ry="1.2862" fill="black"/>
<path d="M9.85734 25.8778C12.4846 25.6418 17.4326 25.9206 19.7096 28.6645M9.85734 25.8778C9.7149 25.8906 9.85734 26.6066 9.85734 30.3795C9.85734 30.5432 9.85016 30.7749 9.85225 31.0263C9.86127 32.1087 10.7053 32.9248 11.6949 33.3636C12.6179 33.7728 13.6059 33.981 14.4893 34.06C15.7638 34.174 17.0279 33.6806 17.7695 32.6378C18.7001 31.3291 19.4055 29.6074 19.7096 28.6645M9.85734 25.8778L12.2657 26.7353M19.7096 28.6645L21.899 29.0932M21.899 29.0932C24.3073 28.3787 29.9559 27.7213 33.2838 30.8081M21.899 29.0932C21.5582 30.4277 21.8742 32.1349 22.2977 33.5014C22.6762 34.7226 23.5207 35.7538 24.752 36.0977C25.598 36.3339 26.5869 36.5028 27.5118 36.6178C28.9753 36.7998 30.9405 36.3848 31.6644 35.1V35.1C31.833 34.8008 31.8119 34.7197 31.9329 34.3983L33.2838 30.8081M33.2838 30.8081H40.0709" stroke="black" stroke-width="1.4"/>
<path d="M12.7035 24.806L15.7687 24.806L19.009 25.5349" stroke="black" stroke-width="1.4" stroke-linecap="round"/>
<path d="M23.2126 26.0922L26.9346 26.3065L30.8755 26.9496" stroke="black" stroke-width="1.4" stroke-linecap="round"/>
<path d="M18.638 31.6546C18.0948 32.6891 16.8201 34.9269 16.0665 35.6018C15.3129 36.2767 15.8388 37.1011 16.196 37.429C16.315 37.5382 16.9728 37.8792 18.6514 38.3687" stroke="black" stroke-width="1.4"/>
<path d="M21.4721 43.2219C19.3961 42.8576 16.5171 42.0027 15.3371 41.6208C15.1067 41.6346 14.7081 41.7672 14.9564 42.187C15.2046 42.6067 15.2025 43.5907 15.9876 44.3133C16.58 44.9116 19.6898 46.4395 20.8518 45.5004C22.0138 44.5613 21.7495 43.5901 21.4721 43.2219Z" fill="#F3F3F3"/>
<path d="M42.732 61.1918C40.4095 64.665 28.7246 67.5036 23.1724 68.4888L24.607 64.9206L22.383 57.3665L21.7481 57.6369C18.6853 58.7642 16.9631 61.4248 16.4849 62.6142C16.57 67.4275 20.1968 69.6085 21.9996 70.0973C32.3549 69.8851 41.8805 63.9201 45.3489 60.9641C49.3536 57.4593 57.6461 49.6934 58.7783 46.6681C59.9105 43.6427 56.491 44.0693 54.6398 44.6608L46.6434 48.5845L47.1278 53.9227C46.6302 54.8985 45.0544 57.7186 42.732 61.1918Z" fill="black"/>
<path d="M21.9996 70.0973C32.3549 69.8851 41.8805 63.9201 45.3489 60.9641C49.3536 57.4593 57.6461 49.6934 58.7783 46.6681C59.9105 43.6427 56.491 44.0693 54.6398 44.6608L46.6434 48.5845L47.1278 53.9227C46.6302 54.8985 45.0544 57.7186 42.732 61.1918C40.4095 64.665 28.7246 67.5036 23.1724 68.4888L24.607 64.9206L22.383 57.3665L21.7481 57.6369C18.6853 58.7642 16.9631 61.4248 16.4849 62.6142C16.57 67.4275 20.1968 69.6085 21.9996 70.0973ZM21.9996 70.0973C21.5893 70.4199 19.9816 70.1437 16.8337 66.4577M18.6031 54.4672C16.7016 56.9282 13.6858 62.7716 16.8337 66.4577M16.8337 66.4577L8.35745 72.3601L3.21372 82.7452M46.3527 45.3817C51.7095 43.0505 62.1147 39.8354 60.8816 45.6243C63.2707 46.9229 68.2467 49.7612 69.0375 50.7254C70.0261 51.9307 72.7688 57.9332 69.3133 61.0315M69.3133 61.0315C64.9888 62.6273 53.7656 66.5161 43.4682 69.3057M69.3133 61.0315C71.8742 63.7463 76.3829 75.088 75.6823 82.7452M39.9064 66.3874L40.1971 69.5903M40.8558 76.8501L40.1971 69.5903M40.1971 69.5903C33.9286 71.9293 22.3701 75.1173 18.476 72.4447M17.1631 70.0876C17.2259 71.1429 17.698 71.9107 18.476 72.4447M18.476 72.4447L19.0479 78.7472" stroke="black" stroke-width="1.4" stroke-linecap="round"/>
<path d="M22.6314 55.2602L25.3255 65.5712L24.2107 67.8202C28.3155 67.0327 37.3072 64.8732 40.436 62.535C43.5648 60.1968 45.9012 55.7467 46.6783 53.814C45.8465 50.2995 44.4108 42.3899 45.322 38.8673" stroke="black" stroke-width="1.4"/>
</svg>
