<svg width="16" height="16" viewBox="0 0 16 16" fill="none" xmlns="http://www.w3.org/2000/svg">
<g clip-path="url(#clip0_26_470)">
<path d="M7.07627 11.8637L7.66133 10.5236C8.18207 9.33106 9.11927 8.38172 10.2883 7.86279L11.8988 7.14792C12.4108 6.92066 12.4108 6.17578 11.8988 5.9485L10.3386 5.25595C9.13947 4.72367 8.18547 3.7392 7.67367 2.50595L7.081 1.07781C6.86107 0.547834 6.12879 0.547835 5.90887 1.07781L5.31618 2.50594C4.80438 3.7392 3.85035 4.72367 2.65123 5.25595L1.09105 5.9485C0.579024 6.17578 0.579024 6.92066 1.09105 7.14792L2.70153 7.86279C3.87059 8.38172 4.80781 9.33106 5.3285 10.5236L5.9136 11.8637C6.13851 12.3788 6.85133 12.3788 7.07627 11.8637ZM12.9343 15.1266L13.0988 14.7495C13.3921 14.0771 13.9205 13.5417 14.5797 13.2488L15.0866 13.0235C15.3608 12.9017 15.3608 12.5033 15.0866 12.3815L14.6081 12.1688C13.9319 11.8684 13.3941 11.3132 13.1057 10.6179L12.9368 10.2104C12.819 9.92639 12.4263 9.92639 12.3085 10.2104L12.1396 10.6179C11.8513 11.3132 11.3135 11.8684 10.6373 12.1688L10.1587 12.3815C9.8846 12.5033 9.8846 12.9017 10.1587 13.0235L10.6657 13.2488C11.3249 13.5417 11.8532 14.0771 12.1465 14.7495L12.3111 15.1266C12.4315 15.4027 12.8138 15.4027 12.9343 15.1266Z" fill="url(#paint0_linear_26_470)"/>
</g>
<defs>
<linearGradient id="paint0_linear_26_470" x1="7.99964" y1="0.680328" x2="7.99964" y2="15.3336" gradientUnits="userSpaceOnUse">
<stop stop-color="#0467FD"/>
<stop offset="1" stop-color="#0052CE"/>
</linearGradient>
<clipPath id="clip0_26_470">
<rect width="16" height="16" fill="white"/>
</clipPath>
</defs>
</svg>
