<svg width="40" height="40" viewBox="0 0 40 40" fill="none" xmlns="http://www.w3.org/2000/svg">
<g clip-path="url(#clip0_29_472)">
<path d="M34 0H6C2.68629 0 0 2.68629 0 6V34C0 37.3137 2.68629 40 6 40H34C37.3137 40 40 37.3137 40 34V6C40 2.68629 37.3137 0 34 0Z" fill="url(#paint0_linear_29_472)"/>
<path fill-rule="evenodd" clip-rule="evenodd" d="M11.2 15.6741V17.8246L26.2724 9.78011C25.582 9.37295 24.8384 9.04639 24.0546 8.81335L11.2 15.6741ZM11.2 21.3812V19.2304L27.4231 10.5718C27.9438 10.9863 28.4223 11.4517 28.851 11.9605L11.2 21.3812ZM11.2 22.787V24.9376L30.4734 14.6508C30.2342 14.0597 29.9401 13.4966 29.5974 12.9679L11.2 22.787ZM11.2 28.4941V26.3434L30.8706 15.8448C31.0388 16.4832 31.1455 17.1466 31.1839 17.8282L11.2 28.4941ZM11.2 29.8168V32H21.2V28.4C26.4385 28.4 30.7362 24.372 31.1649 19.2442L11.2423 29.8774L11.2 29.8168ZM22.1172 8.44151C21.8152 8.41403 21.5092 8.39999 21.2 8.39999H18.1653L11.2 12.1176V14.2683L22.1172 8.44151ZM11.2 8.39999H15.5313L11.2 10.7117V8.39999Z" fill="white"/>
</g>
<defs>
<linearGradient id="paint0_linear_29_472" x1="5.5" y1="2.5" x2="35.5" y2="37.5" gradientUnits="userSpaceOnUse">
<stop stop-color="#0467FD"/>
<stop offset="1" stop-color="#0052CE"/>
</linearGradient>
<clipPath id="clip0_29_472">
<rect width="40" height="40" fill="white"/>
</clipPath>
</defs>
</svg>
