<svg xmlns="http://www.w3.org/2000/svg" width="52" height="53" fill="none" viewBox="0 0 52 53"><path stroke="currentColor" stroke-linecap="round" d="M12.402 18.711c1.926.152 5.702 1.299 5.403 4.664.094.488-1.08 2.598-6.52 7.134-1.087 1.158-2.33 3.402 1.397 3.11.03.06.521 0 2.236-.732"/><path fill="currentColor" fill-rule="evenodd" d="M19.702 16.712c10.45 4.737 13.848 5.254 14.288 4.91-2.452 2.35-.298 6.295 1.09 7.979a148.87 148.87 0 0 0-2.093 2.923c-.582.833-.804 1.15-1.64 2.143-1.423 1.69.355 3.556 1.422 3.556.853 0 3.26-2.133 4.355-3.2 2.46-1.393 6.952-3.022 5.245 1.6-1.707 4.622-6.282 4.71-8.356 4.178 5.69 2.915 9.008-1.215 9.956-3.645 1.689.296 5.422.018 6.844-3.466 1.357-3.324.126-4.163-.415-4.532-.169-.115-.27-.184-.207-.268.213-.285.504-.77.622-.978 1.92-5.262-1.689-5.808-3.733-5.422l.356-.89c.995-7.182-5.63-5.718-9.067-4.088 1.564-5.405-.178-9.897-1.245-11.467-3.982-6.044-7.11-2.044-8.177.711-.783-1.209-3.585-3.467-4.89-4.444-8.817-5.334-11.91 1.748-12.355 5.955-1.35-1.066-2.696-1.452-3.2-1.51-5.957 0-6.061 3.952-5.258 6.34a4.474 4.474 0 0 0 .002.005c.059.176.123.342.19.499-4.907 2.062-2.4 5.185-.534 6.489 2.916 1.493 6.311.207 7.645-.623 3.342-3.057 7.496-3.11 9.155-2.755Zm-16.456-3.61c.644-5.182 5.422-5.65 7.732-5.235-6.602-2.343-7.907 2.5-7.734 5.23 0 .001 0 .003.002.005ZM12.5 7.5c.948-4.385 4.404-10.387 15-1-3.704-2.637-11.018-6.467-15 1ZM1.46 18.356C.984 17.437.321 15.636 2.881 14c-.593.533-1.705 1.867-1.423 4.356Zm37.962-.89c2.845-1.036 8.338-1.617 7.556 4.356-.148-1.896-1.867-5.422-7.556-4.355Zm8.267 5.245c1.837-.207 4.924.64 2.578 5.689.651-1.689 1.049-5.191-2.578-5.689Z" clip-rule="evenodd"/><path stroke="currentColor" stroke-linecap="round" d="M15.702 22.223c-1.066-.534-3.413-1.636-4.267-1.778-1.066-.178-2.933 3.2-3.11 4.178-.178.978-.712 6.222 4.355 4.978M18.636 25.067c-.8 1.126-2.418 3.823-2.49 5.6-.088 2.222 2.667 5.778 7.556 3.29.919-.445 3.04-2.063 4.178-4.979.178-.83-.835-2.862-6.311-4.355M27.969 28.8c.77.356 2.809 1.512 4.8 3.29"/><path fill="currentColor" stroke="currentColor" stroke-linecap="round" d="M21.569 26.134c.782.213 2.281 1.096 2.933 1.511 0 .711-.266.8-.533.8-.213 0-.682-.237-.889-.355-.782 1.422-1.511 1.896-1.778 1.955-1.209.356-1.807-.563-1.955-1.067.415-1.037 1.44-3.057 2.222-2.844Z"/><path stroke="currentColor" stroke-linecap="round" d="M22.369 23.112c1.452-.06 4.782.409 6.489 2.755M14.013 40.8c.415.356 1.636.587 3.2-1.333M9.391 30.045c-.77 1.185-2.311 4-2.311 5.778-.415 2.103-.533 7.395 2.311 11.733 2.845 4.338 7.111 4.415 8.889 3.911M18.369 51.467c1.926.06 8.018-1.813 16.978-9.777"/><path fill="currentColor" stroke="currentColor" stroke-linecap="round" d="M13.658 23.038c.782.214 2.281 1.097 2.933 1.512 0 .71-.267.8-.533.8-.214 0-.682-.238-.89-.356-.781 1.422-1.51 1.896-1.777 1.956-1.209.355-1.807-.563-1.956-1.067.415-1.037 1.44-3.058 2.223-2.845Z"/></svg>