<svg width="29" height="26" viewBox="0 0 29 26" fill="none" xmlns="http://www.w3.org/2000/svg">
<path d="M19.5307 4.65713L28.3196 19.1321C28.6602 19.6864 28.8801 20.317 28.9627 20.9764C29.0453 21.6359 28.9884 22.3071 28.7963 22.9393C28.7935 22.9366 28.7903 22.9343 28.7869 22.9326C28.7869 22.9292 28.7838 22.9292 28.7807 22.9261C28.7188 22.8724 28.6601 22.8187 28.5982 22.7687C24.13 18.9247 19.5999 17.448 15.4291 17.2805H15.4197C13.8441 17.2235 12.2672 17.3391 10.7131 17.6254C10.7108 17.6257 10.7085 17.6269 10.7069 17.6288C7.28087 18.2953 3.98924 19.6054 0.981009 21.4995C0.973488 21.5023 0.966194 21.5057 0.959158 21.5097C0.957653 21.5116 0.955524 21.5128 0.953197 21.513C0.742641 21.6435 0.538073 21.7742 0.343122 21.9012C0.237844 21.9718 0.132568 22.0387 0.0335331 22.1056C-0.0918922 21.0628 0.137108 20.0063 0.677376 19.1321L4.48924 12.8506C4.65326 12.6796 4.82048 12.5088 4.99094 12.3382C6.53053 10.7733 8.21682 9.38624 10.0224 8.19954L10.0287 8.19616L10.0318 8.1931C10.0373 8.19178 10.0426 8.18948 10.0474 8.18635C12.8691 6.31474 16.0295 5.12028 19.315 4.68383C19.3862 4.6737 19.4606 4.66357 19.5307 4.65713Z" fill="#FF9900"/>
<path d="M17.9276 2.00489L19.5318 4.65709C19.4605 4.66354 19.3862 4.67366 19.315 4.68379C16.0295 5.12027 12.869 6.3147 10.0474 8.18631C10.0425 8.18947 10.0373 8.19174 10.0318 8.19306C10.0286 8.19306 10.0286 8.19306 10.0286 8.19613L10.0224 8.1995C9.69435 8.41431 9.37228 8.63156 9.05758 8.85926L9.05445 8.86263C7.61245 9.89571 6.25351 11.0583 4.99202 12.3381C4.82176 12.5091 4.65746 12.6757 4.49344 12.8472C4.49883 12.8365 4.50499 12.8262 4.51189 12.8165L6.9767 8.75492C6.97982 8.74817 6.98294 8.7448 6.98606 8.73804L11.0703 2.00428C11.5874 1.13843 12.3717 0.498934 13.2837 0.199621C13.2956 0.193606 13.3081 0.189065 13.3209 0.18612C14.1675 -0.0877848 15.0732 -0.0587244 15.9033 0.269004C16.7334 0.596732 17.4434 1.20558 17.9276 2.00489Z" fill="url(#paint0_linear)"/>
<path fill-rule="evenodd" clip-rule="evenodd" d="M15.9979 22.3617C15.5992 22.1851 14.5624 21.9378 13.6054 22.3617C12.6484 22.7855 8.15589 24.834 6.02924 25.8053C5.86857 25.8787 5.64958 25.9499 5.41939 25.9999H4.10536C3.10343 26.0026 2.13541 25.6076 1.38487 24.8898C0.634361 24.172 0.153572 23.1813 0.0335369 22.1056C0.0855751 22.0704 0.139338 22.0353 0.193918 21.9996C0.24321 21.9674 0.293169 21.9347 0.343128 21.9012C3.49781 19.8455 9.0313 17.0301 15.4198 17.2805H15.4292C15.4402 17.2838 15.4518 17.285 15.4632 17.2839C19.6247 17.4548 24.1423 18.9348 28.5983 22.7687C28.6416 22.8037 28.6834 22.8406 28.7259 22.878C28.744 22.894 28.7622 22.91 28.7808 22.9261C28.7819 22.9273 28.7831 22.928 28.784 22.9286C28.7858 22.9297 28.787 22.9304 28.787 22.9326C28.7904 22.9343 28.7936 22.9366 28.7964 22.9393C28.5306 23.8318 28.0088 24.6096 27.3068 25.1599C26.6047 25.7103 25.7588 26.0045 24.8917 25.9999H24.0018C23.8592 25.9609 23.7167 25.9 23.5741 25.8053L15.9979 22.3617Z" fill="#F23E2C"/>
<defs>
<linearGradient id="paint0_linear" x1="266.386" y1="65.354" x2="262.183" y2="51.7476" gradientUnits="userSpaceOnUse">
<stop stop-color="#EB643F"/>
<stop offset="1" stop-color="#35CBC5"/>
</linearGradient>
</defs>
</svg>
