<svg xmlns="http://www.w3.org/2000/svg" width="21" height="20" fill="currentColor" viewBox="0 0 21 20"><path d="m14.104.244 6.082 6.083a.48.48 0 0 1-.265.812l-1.413.22-5.42-5.42.202-1.424a.48.48 0 0 1 .814-.27ZM2.601 18.56c3.568-3.193 7.662-4.148 12.117-5.291l.427-3.85L11.028 5.3l-3.85.428c-1.143 4.455-2.098 8.55-5.29 12.117L.55 16.508C3.26 13.346 4.278 9.844 5.633 3.97l6.099-.677 5.421 5.421-.678 6.099c-5.873 1.355-9.374 2.372-12.536 5.082l-1.337-1.337Zm5.064-5.78a1.917 1.917 0 1 1 2.71-2.71 1.917 1.917 0 0 1-2.71 2.71Z"/></svg>