<svg xmlns="http://www.w3.org/2000/svg" width="20" height="20" fill="currentColor" viewBox="0 0 20 20"><g clip-path="url(#a)"><path d="M10 15a5 5 0 1 1 0-10 5 5 0 0 1 0 10Zm0-1.667a3.333 3.333 0 1 0 0-6.667 3.333 3.333 0 0 0 0 6.667ZM9.167.833h1.667v2.5H9.167v-2.5Zm0 15.834h1.667v2.5H9.167v-2.5ZM2.929 4.107 4.108 2.93l1.767 1.768-1.178 1.178-1.768-1.768Zm11.196 11.196 1.178-1.178 1.768 1.768-1.178 1.178-1.768-1.768ZM15.893 2.93l1.178 1.178-1.768 1.768-1.178-1.178 1.768-1.768ZM4.697 14.125l1.178 1.178-1.767 1.768-1.179-1.179 1.768-1.767Zm14.47-4.958v1.666h-2.5V9.167h2.5Zm-15.834 0v1.666h-2.5V9.167h2.5Z"/></g><defs><clipPath id="a"><path fill="#fff" d="M0 0h20v20H0z"/></clipPath></defs></svg>