<?xml version="1.0" encoding="UTF-8"?>
<svg width="110px" height="29px" viewBox="0 0 110 29" version="1.1" xmlns="http://www.w3.org/2000/svg" xmlns:xlink="http://www.w3.org/1999/xlink">
    <!-- Generator: Sketch 51.2 (57519) - http://www.bohemiancoding.com/sketch -->
    <title>Group Copy</title>
    <desc>Created with Sketch.</desc>
    <defs></defs>
    <g id="Page-1" stroke="none" stroke-width="1" fill="none" fill-rule="evenodd">
        <g id="Monthly_Portfolio_Update" transform="translate(-1210.000000, -46.000000)">
            <g id="Group-17" transform="translate(120.000000, 46.000000)">
                <g id="Group-Copy" transform="translate(1090.000000, 0.000000)">
                    <path d="M10.137931,8.67464008 L10.137931,13.5713853 L7.68965517,13.5713853 L7.68965517,27.9167797 L1.79310345,27.9167797 L1.79310345,13.5713853 L0,13.5713853 L0,8.67464008 L1.79310345,8.67464008 L1.79310345,7.95047353 C1.79310345,5.51358345 2.44252224,3.73192167 3.74137931,2.60543474 C5.04023638,1.47894781 7.08044586,0.915712799 9.86206897,0.915712799 L9.86206897,5.91591038 C9.08045586,5.91591038 8.52299017,6.06534008 8.18965517,6.36420395 C7.85632017,6.66306783 7.68965517,7.19181907 7.68965517,7.95047353 L7.68965517,8.67464008 L10.137931,8.67464008 Z M26.3103448,18.2957099 C26.3103448,16.778401 25.8850617,15.6116999 25.0344828,14.7955716 C24.1839038,13.9794433 23.2069021,13.5713853 22.1034483,13.5713853 C20.9999945,13.5713853 20.0229928,13.9851906 19.1724138,14.8128137 C18.3218348,15.6404367 17.8965517,16.8128851 17.8965517,18.330194 C17.8965517,19.8475029 18.3218348,21.014204 19.1724138,21.8303323 C20.0229928,22.6464606 20.9999945,23.0545186 22.1034483,23.0545186 C23.2069021,23.0545186 24.1839038,22.6407133 25.0344828,21.8130903 C25.8850617,20.9854672 26.3103448,19.8130188 26.3103448,18.2957099 Z M11.8965517,18.330194 C11.8965517,15.4565029 12.7471179,13.0943642 14.4482759,11.2437071 C16.1494338,9.39305002 18.2241257,8.46773535 20.6724138,8.46773535 C23.1207019,8.46773535 24.9999934,9.37580813 26.3103448,11.1919809 L26.3103448,8.67464008 L32.2068966,8.67464008 L32.2068966,27.9167797 L26.3103448,27.9167797 L26.3103448,25.1235659 C24.8850503,27.1466445 22.9770234,28.1581686 20.5862069,28.1581686 C18.1953903,28.1581686 16.1494338,27.2386012 14.4482759,25.3994389 C12.7471179,23.5602765 11.8965517,21.2038852 11.8965517,18.330194 Z M35.9655172,18.2957099 C35.9655172,15.3070711 36.8563129,12.9219433 38.637931,11.1402547 C40.4195491,9.35856624 42.7241238,8.46773535 45.5517241,8.46773535 C47.8965634,8.46773535 49.8850493,9.04821225 51.5172414,10.2091835 C53.1494334,11.3701547 54.2298824,13.0311233 54.7586207,15.192139 L48.3793103,15.192139 C47.8275834,14.0426625 46.9252936,13.4679329 45.6724138,13.4679329 C44.419534,13.4679329 43.4885088,13.9104747 42.8793103,14.7955716 C42.2701119,15.6806685 41.9655172,16.8473696 41.9655172,18.2957099 C41.9655172,19.7440502 42.2701119,20.9107513 42.8793103,21.7958482 C43.4885088,22.6809451 44.3793045,23.1234869 45.5517241,23.1234869 C46.28736,23.1234869 46.8620669,22.9970464 47.2758621,22.7441615 C47.6896572,22.4912767 48.0574697,22.0429876 48.3793103,21.3992808 L54.7586207,21.3992808 C54.2298824,23.4683384 53.1379393,25.1120651 51.4827586,26.3305101 C49.8275779,27.5489552 47.8505862,28.1581686 45.5517241,28.1581686 C42.7241238,28.1581686 40.4195491,27.2615904 38.637931,25.4684071 C36.8563129,23.6752238 35.9655172,21.2843487 35.9655172,18.2957099 Z M58.0689655,27.9167797 L58.0689655,8.67464008 L63.9655172,8.67464008 L63.9655172,27.9167797 L58.0689655,27.9167797 Z M69.137931,27.9167797 L69.137931,2.39853001 L75.0344828,2.39853001 L75.0344828,27.9167797 L69.137931,27.9167797 Z M80.2068966,27.9167797 L80.2068966,8.67464008 L86.1034483,8.67464008 L86.1034483,27.9167797 L80.2068966,27.9167797 Z M104,18.2957099 C104,16.7324219 103.597705,15.5427316 102.793103,14.7266034 C101.988502,13.9104751 101.034488,13.502417 99.9310345,13.502417 C98.8275807,13.502417 97.8793143,13.9104751 97.0862069,14.7266034 C96.2930995,15.5427316 95.8965517,16.7324219 95.8965517,18.2957099 C95.8965517,19.8589979 96.3045936,21.0544355 97.1206897,21.8820585 C97.9367857,22.7096816 98.8965462,23.1234869 100,23.1234869 C101.103454,23.1234869 102.045973,22.7096816 102.827586,21.8820585 C103.609199,21.0544355 104,19.8589979 104,18.2957099 Z M89.8965517,18.2612258 C89.8965517,15.2955765 90.8620593,12.9219433 92.7931034,11.1402547 C94.7241476,9.35856624 97.1149283,8.46773535 99.9655172,8.46773535 C102.816106,8.46773535 105.20114,9.35856624 107.12069,11.1402547 C109.040239,12.9219433 110,15.2955765 110,18.2612258 C110,21.226875 109.045987,23.6177502 107.137931,25.433923 C105.229876,27.2500958 102.850589,28.1581686 100,28.1581686 C97.149411,28.1581686 94.7528833,27.2500958 92.8103448,25.433923 C90.8678064,23.6177502 89.8965517,21.226875 89.8965517,18.2612258 Z" id="facilio" fill="#372668"></path>
                    <polygon id="Path" fill="#FF3184" points="58.1477627 5.95213319 58.1477627 0 64.0998959 0 64.0998959 5.95213319"></polygon>
                    <polygon id="Path" fill="#39B3C2" points="80.3537981 5.95213319 80.3537981 0 86.3059313 0 86.3059313 5.95213319"></polygon>
                </g>
            </g>
        </g>
    </g>
</svg>