<svg width="32" height="33" viewBox="0 0 32 33" fill="none" xmlns="http://www.w3.org/2000/svg">
<rect y="0.468048" width="32" height="32" rx="6" fill="white"/>
<path d="M16.001 6.46805C10.476 6.46805 6.00098 10.943 6.00098 16.468C6.00098 20.893 8.86348 24.6305 12.8385 25.9555C13.3385 26.043 13.526 25.743 13.526 25.4805C13.526 25.243 13.5135 24.4555 13.5135 23.618C11.001 24.0805 10.351 23.0055 10.151 22.443C10.0385 22.1555 9.55098 21.268 9.12598 21.0305C8.77598 20.843 8.27598 20.3805 9.11348 20.368C9.90098 20.3555 10.4635 21.093 10.651 21.393C11.551 22.9055 12.9885 22.4805 13.5635 22.218C13.651 21.568 13.9135 21.1305 14.201 20.8805C11.976 20.6305 9.65098 19.768 9.65098 15.943C9.65098 14.8555 10.0385 13.9555 10.676 13.2555C10.576 13.0055 10.226 11.9805 10.776 10.6055C10.776 10.6055 11.6135 10.343 13.526 11.6305C14.326 11.4055 15.176 11.293 16.026 11.293C16.876 11.293 17.726 11.4055 18.526 11.6305C20.4385 10.3305 21.276 10.6055 21.276 10.6055C21.826 11.9805 21.476 13.0055 21.376 13.2555C22.0135 13.9555 22.401 14.843 22.401 15.943C22.401 19.7805 20.0635 20.6305 17.8385 20.8805C18.201 21.193 18.5135 21.793 18.5135 22.7305C18.5135 24.068 18.501 25.143 18.501 25.4805C18.501 25.743 18.6885 26.0555 19.1885 25.9555C23.259 24.5813 25.9999 20.7643 26.001 16.468C26.001 10.943 21.526 6.46805 16.001 6.46805Z" fill="black"/>
</svg>
