<svg width="33" height="33" viewBox="0 0 33 33" fill="none" xmlns="http://www.w3.org/2000/svg">
<rect x="0.693451" y="0.0655746" width="32" height="32" rx="6" fill="#E04266"/>
<path d="M16.6943 13.5656C15.3131 13.5656 14.1943 14.6848 14.1943 16.0656C14.1943 17.4467 15.3135 18.5656 16.6943 18.5656C18.0754 18.5656 19.1943 17.4463 19.1943 16.0656C19.1943 14.6845 18.075 13.5656 16.6943 13.5656ZM16.6943 11.8989C18.9946 11.8989 20.8609 13.7632 20.8609 16.0656C20.8609 18.366 18.9967 20.2322 16.6943 20.2322C14.3939 20.2322 12.5276 18.368 12.5276 16.0656C12.5276 13.7652 14.3918 11.8989 16.6943 11.8989ZM22.1109 11.6899C22.1109 12.265 21.6436 12.7315 21.0693 12.7315C20.4942 12.7315 20.0276 12.2642 20.0276 11.6899C20.0276 11.1155 20.4949 10.6489 21.0693 10.6489C21.6429 10.6482 22.1109 11.1155 22.1109 11.6899ZM16.6943 9.39891C14.6322 9.39891 14.2961 9.40436 13.337 9.44707C12.6836 9.47775 12.2456 9.56563 11.8386 9.72363C11.4769 9.8639 11.216 10.0314 10.938 10.3094C10.659 10.5884 10.4918 10.8486 10.3521 11.2104C10.1937 11.6183 10.1059 12.0557 10.0758 12.7082C10.0326 13.6282 10.0276 13.9498 10.0276 16.0656C10.0276 18.1277 10.0331 18.4637 10.0758 19.4227C10.1064 20.0759 10.1944 20.5146 10.3521 20.9206C10.4927 21.2827 10.6605 21.5442 10.9372 21.8209C11.2173 22.1007 11.4783 22.2684 11.8367 22.4067C12.2486 22.566 12.6863 22.654 13.3369 22.6841C14.2569 22.7272 14.5785 22.7322 16.6943 22.7322C18.7564 22.7322 19.0924 22.7267 20.0514 22.6841C20.7032 22.6535 21.1422 22.5652 21.5493 22.4077C21.9104 22.2675 22.1728 22.0991 22.4496 21.8227C22.7298 21.5421 22.8972 21.2817 23.0357 20.9225C23.1945 20.5121 23.2827 20.0737 23.3128 19.423C23.3559 18.5029 23.3609 18.1813 23.3609 16.0656C23.3609 14.0035 23.3554 13.6674 23.3128 12.7084C23.2821 12.0565 23.1939 11.6168 23.0362 11.2099C22.8963 10.8492 22.7282 10.5875 22.4504 10.3094C22.1709 10.0299 21.9114 9.86301 21.5494 9.72342C21.1418 9.56519 20.7038 9.47721 20.0516 9.44708C19.1316 9.40395 18.81 9.39891 16.6943 9.39891ZM16.6943 7.73224C18.9581 7.73224 19.2408 7.74057 20.1297 7.78224C21.0164 7.82321 21.6214 7.96349 22.1526 8.16974C22.7019 8.38155 23.1658 8.66766 23.6289 9.13085C24.0914 9.59405 24.3776 10.0593 24.5901 10.6072C24.7956 11.1378 24.9359 11.7433 24.9776 12.6302C25.0172 13.519 25.0276 13.8017 25.0276 16.0656C25.0276 18.3295 25.0193 18.6121 24.9776 19.501C24.9366 20.3878 24.7956 20.9927 24.5901 21.5239C24.3783 22.0732 24.0914 22.5371 23.6289 23.0003C23.1658 23.4628 22.6998 23.7489 22.1526 23.9614C21.6214 24.167 21.0164 24.3072 20.1297 24.3489C19.2408 24.3885 18.9581 24.3989 16.6943 24.3989C14.4304 24.3989 14.1477 24.3906 13.2588 24.3489C12.372 24.3079 11.7679 24.167 11.2359 23.9614C10.6873 23.7496 10.2227 23.4628 9.75954 23.0003C9.29635 22.5371 9.01093 22.0712 8.79843 21.5239C8.59218 20.9927 8.4526 20.3878 8.41093 19.501C8.37135 18.6121 8.36093 18.3295 8.36093 16.0656C8.36093 13.8017 8.36926 13.519 8.41093 12.6302C8.4519 11.7427 8.59218 11.1385 8.79843 10.6072C9.01023 10.0586 9.29635 9.59405 9.75954 9.13085C10.2227 8.66766 10.688 8.38224 11.2359 8.16974C11.7672 7.96349 12.3713 7.82391 13.2588 7.78224C14.1477 7.74266 14.4304 7.73224 16.6943 7.73224Z" fill="white"/>
</svg>
