<svg width="33" height="33" viewBox="0 0 33 33" fill="none" xmlns="http://www.w3.org/2000/svg">
<rect x="0.896149" y="0.0655746" width="32" height="32" rx="6" fill="#2864AB"/>
<path d="M12.6799 10.2322C12.6796 10.9108 12.2679 11.5214 11.6389 11.7762C11.01 12.0309 10.2894 11.8789 9.81689 11.3919C9.34441 10.9048 9.21443 10.1799 9.48822 9.55896C9.76202 8.93806 10.3849 8.54515 11.0632 8.56551C11.9641 8.59255 12.6803 9.33088 12.6799 10.2322ZM12.7299 13.1322H9.39654V23.5655H12.7299V13.1322ZM17.9966 13.1322H14.6799V23.5655H17.9632V18.0905C17.9632 15.0405 21.9382 14.7572 21.9382 18.0905V23.5655H25.2299V16.9572C25.2299 11.8155 19.3466 12.0072 17.9632 14.5322L17.9966 13.1322Z" fill="white"/>
</svg>
