<svg width="366" height="249" viewBox="0 0 366 249" fill="none" xmlns="http://www.w3.org/2000/svg">
<g opacity="0.32" filter="url(#filter0_f)">
<path d="M147.265 182.287C131.167 191.676 119.667 197.979 94.9114 212.108C113.648 223.496 130.03 231.86 132.142 233.098L185.937 202.557C181.623 200.283 167.342 192.194 147.265 182.287Z" fill="url(#paint0_linear)"/>
</g>
<g opacity="0.32" filter="url(#filter1_f)">
<path d="M49.084 171.609C57.4375 166.047 65.933 160.688 74.3778 155.278L62.3805 146.518L15.9138 165.905C21.5268 168.848 29.1088 174.36 37.0867 179.973C41.0554 177.141 45.024 174.309 49.084 171.609Z" fill="url(#paint1_linear)"/>
</g>
<g opacity="0.32" filter="url(#filter2_f)">
<path d="M322.878 197C332.166 191.015 341.611 185.248 351 179.426L337.661 170L286 190.862C292.24 194.029 300.67 199.96 309.54 206C313.952 202.953 318.365 199.905 322.878 197Z" fill="url(#paint2_linear)"/>
</g>
<path d="M78.9353 124.219C78.8663 123.932 78.7384 123.662 78.5597 123.427C78.2319 123.028 77.8411 122.685 77.4026 122.412C71.5055 118.423 63.3347 117.337 57.1026 121.225C55.6816 122.118 53.5603 124.138 54.4027 126.046C54.8899 127.152 56.3718 127.802 57.4477 128.248C60.8691 129.616 64.4447 130.56 68.0951 131.06C69.4146 131.283 70.7544 131.507 72.0841 131.628C73.0039 131.717 73.9313 131.573 74.7808 131.209C75.6304 130.846 76.3749 130.274 76.9459 129.548C77.8696 128.34 79.3515 125.985 78.9353 124.219Z" fill="#754C24"/>
<path d="M54.23 125.173C54.23 125.173 59.6095 130.045 68.9069 129.335C78.2043 128.624 78.9249 124.26 78.9249 124.26C78.9249 124.26 76.5194 155.075 75.2506 155.603C73.9819 156.131 69.2317 158.424 66.9378 158.597C64.6439 158.77 57.3968 155.867 57.2141 155.065C57.0314 154.263 54.23 125.173 54.23 125.173Z" fill="#FF8F6F"/>
<path d="M55.9151 80.31C55.6309 79.7314 54.7478 80.2389 55.0422 80.8175C61.4062 93.6471 62.6445 108.091 63.7915 122.118C63.8422 122.757 64.8572 122.767 64.8065 122.118C63.6595 107.857 62.3806 93.2614 55.9151 80.31Z" fill="#007F68"/>
<path d="M55.1131 80.3912C55.1131 80.3912 56.8893 87.0496 55.0522 90.3788C53.215 93.708 51.7027 94.3678 53.8951 98.4988C56.0875 102.63 61.9542 103.188 62.3399 106.355C62.7256 109.522 59.5385 86.0448 55.1131 80.3912Z" fill="#007F68"/>
<path d="M75.464 92.4087C70.5626 102.659 67.7998 113.8 67.344 125.153C67.344 125.944 68.5518 125.934 68.5823 125.153C69.0125 114.016 71.7026 103.083 76.4891 93.0177C76.8748 92.3174 75.8091 91.6881 75.464 92.4087Z" fill="#007F68"/>
<path d="M76.3369 95.6466C76.3369 94.9767 76.1846 93.6166 76.2557 92.49L75.5452 92.9366C73.1295 98.8134 69.5161 112.617 68.4402 116.84C69.9119 113.673 75.9309 113.237 77.697 108.72C78.4764 106.803 78.5125 104.664 77.7985 102.721C76.9274 100.459 76.4336 98.0689 76.3369 95.6466V95.6466Z" fill="#007F68"/>
<g opacity="0.32" filter="url(#filter3_f)">
<path d="M211.809 210.352C228.171 201.542 266.893 182.064 283.133 173.051L189.672 114.576L122.235 160.363C139.348 169.315 188.129 195.705 211.809 210.352Z" fill="url(#paint3_linear)"/>
</g>
<path d="M132.933 111.775C133.004 133.425 133.126 152.913 133.126 152.913C133.126 152.913 133.583 154.679 136.841 153.238V110.476C135.542 110.912 134.242 111.328 132.933 111.775Z" fill="#5B434D"/>
<path d="M223.461 164.393C223.532 186.043 223.654 205.531 223.654 205.531C223.654 205.531 224.111 207.297 227.369 205.855V163.134C226.069 163.54 224.77 163.987 223.461 164.393Z" fill="#5B434D"/>
<path d="M279.215 131.588C279.286 153.238 279.408 172.726 279.408 172.726C279.408 172.726 279.865 174.492 283.123 173.051V130.329C281.834 130.756 280.535 131.182 279.215 131.588Z" fill="#5B434D"/>
<path d="M132.172 110.476V114.16L225.592 168.209L283.041 130.481L283.133 126.361" fill="#111927"/>
<path opacity="0.76" d="M132.172 110.476V114.16L225.592 168.209L283.041 130.481L283.133 126.361" fill="#A1BDF2"/>
<path d="M132.172 110.476L192.28 76.1891L283.133 126.361L225.268 164.514L132.172 110.476Z" fill="#D6E0FF"/>
<path d="M215.585 92.6321L202.928 98.7221C202.45 98.9511 202.044 99.306 201.753 99.7486C201.462 100.191 201.297 100.705 201.276 101.234C201.255 101.763 201.379 102.288 201.634 102.752C201.89 103.216 202.266 103.602 202.725 103.868L232.738 121.377C233.387 121.755 234.157 121.868 234.887 121.692C235.617 121.516 236.25 121.065 236.656 120.433L243.944 109.095" fill="#56403D"/>
<path d="M279.215 60.1825L175.817 0.632461C175.305 0.328497 174.722 0.165996 174.126 0.161591C173.531 0.157186 172.945 0.311033 172.429 0.607388C171.913 0.903743 171.485 1.33196 171.188 1.84822C170.892 2.36447 170.738 2.95022 170.742 3.54551V66.8105C170.743 67.2654 170.864 67.712 171.092 68.1056C171.32 68.4993 171.647 68.8262 172.041 69.0536L282.057 132.562C282.247 132.673 282.464 132.732 282.684 132.732C282.904 132.733 283.121 132.675 283.311 132.565C283.502 132.454 283.66 132.296 283.77 132.104C283.879 131.913 283.936 131.696 283.935 131.476V68.4649C283.941 66.7921 283.509 65.1469 282.681 63.6936C281.853 62.2402 280.658 61.0295 279.215 60.1825V60.1825Z" fill="#C13D3D"/>
<path d="M177.614 6.21497L275.52 62.5475C276.566 63.1489 277.435 64.0154 278.039 65.0597C278.643 66.1039 278.961 67.289 278.961 68.4954V113.866C278.963 114.301 278.849 114.729 278.632 115.107C278.415 115.484 278.103 115.798 277.726 116.016C277.349 116.234 276.922 116.349 276.487 116.349C276.051 116.35 275.623 116.235 275.246 116.018L175.401 58.7311C175.028 58.5168 174.718 58.2078 174.502 57.8353C174.286 57.4629 174.173 57.0401 174.173 56.6097V8.24497C174.168 7.83982 174.271 7.44063 174.469 7.08765C174.668 6.73468 174.957 6.44042 175.306 6.23453C175.655 6.02865 176.052 5.91843 176.457 5.915C176.862 5.91157 177.261 6.01503 177.614 6.21497V6.21497Z" fill="#200A52"/>
<path d="M219.852 91.6126C220.43 91.5013 220.898 91.4066 220.896 91.4011C220.895 91.3956 220.426 91.4814 219.848 91.5927C219.27 91.704 218.802 91.7987 218.803 91.8042C218.804 91.8097 219.274 91.7239 219.852 91.6126Z" fill="#AB643C"/>
<path d="M271.532 65.1155C272.12 65.1155 272.597 64.5974 272.597 63.9584C272.597 63.3193 272.12 62.8013 271.532 62.8013C270.943 62.8013 270.466 63.3193 270.466 63.9584C270.466 64.5974 270.943 65.1155 271.532 65.1155Z" fill="#659FE4"/>
<path d="M268.131 63.4204C268.72 63.4204 269.197 62.9023 269.197 62.2633C269.197 61.6243 268.72 61.1062 268.131 61.1062C267.543 61.1062 267.065 61.6243 267.065 62.2633C267.065 62.9023 267.543 63.4204 268.131 63.4204Z" fill="#C5E9FF"/>
<path d="M179.664 18.7502L239.701 52.8644" stroke="#00A99D" stroke-width="4.06" stroke-miterlimit="10"/>
<path d="M179.877 27.6721L189.601 33.1937" stroke="#D4145A" stroke-width="4.06" stroke-miterlimit="10"/>
<path d="M192.473 35.0613L246.512 64.7703" stroke="#29ABE2" stroke-width="4.06" stroke-miterlimit="10"/>
<path d="M179.664 35.8124L200.41 47.2514" stroke="#F7931E" stroke-width="4.06" stroke-miterlimit="10"/>
<path d="M203.851 49.4236L249.354 73.7633" stroke="#00A99D" stroke-width="4.06" stroke-miterlimit="10"/>
<path d="M315.329 56.5996V100.245C315.331 101.105 315.104 101.951 314.672 102.696C314.239 103.44 313.617 104.056 312.869 104.482C312.121 104.907 311.273 105.126 310.412 105.116C309.551 105.106 308.709 104.868 307.97 104.426L266.446 79.6604C265.722 79.2291 265.122 78.6168 264.706 77.8837C264.289 77.1505 264.071 76.3217 264.071 75.4785V32.605C264.07 31.7506 264.295 30.9112 264.722 30.1711C265.149 29.4311 265.763 28.8166 266.503 28.3895C267.243 27.9624 268.082 27.7378 268.936 27.7384C269.791 27.739 270.63 27.9646 271.369 28.3927L312.893 52.367C313.636 52.7949 314.253 53.4119 314.681 54.1552C315.109 54.8986 315.332 55.7419 315.329 56.5996V56.5996Z" fill="#F6DC9D"/>
<path d="M285.691 51.6667L272.232 61.563L284.3 78.5034" stroke="#006837" stroke-width="4.06" stroke-miterlimit="10"/>
<path d="M297.597 58.8123L307.503 78.1582L293.577 84.6542" stroke="#006837" stroke-width="4.06" stroke-miterlimit="10"/>
<path d="M180.527 98.8033L158.714 111.268C158.487 111.4 158.298 111.589 158.166 111.817C158.035 112.045 157.966 112.304 157.966 112.567C157.966 112.83 158.035 113.088 158.166 113.316C158.298 113.544 158.487 113.734 158.714 113.866L219.33 148.711C220.065 149.134 220.898 149.357 221.746 149.357C222.594 149.357 223.427 149.134 224.161 148.711L244.573 136.927C244.811 136.79 245.009 136.592 245.147 136.354C245.284 136.117 245.357 135.847 245.357 135.572C245.357 135.297 245.284 135.027 245.147 134.789C245.009 134.551 244.811 134.354 244.573 134.217L183.267 98.8033C182.851 98.5598 182.378 98.4314 181.897 98.4314C181.415 98.4314 180.942 98.5598 180.527 98.8033V98.8033Z" fill="#200A52"/>
<path d="M213.484 118.677L207.262 122.372L211.88 125.051L218.132 121.377L213.484 118.677Z" fill="white"/>
<path d="M206.663 114.708L200.441 118.403L206.297 121.803L212.55 118.129L206.663 114.708Z" fill="white"/>
<path d="M181.876 100.316L175.553 103.949L181.176 107.218L187.428 103.543L181.876 100.316Z" fill="white"/>
<path d="M195.203 108.06L188.981 111.775L193.6 114.455L199.852 110.78L195.203 108.06Z" fill="white"/>
<path d="M188.383 104.091L182.161 107.786L188.007 111.186C188.697 110.79 192.615 108.476 194.259 107.512L188.383 104.091Z" fill="white"/>
<path d="M219.076 121.925L212.854 125.62L217.28 128.188L223.522 124.513L219.076 121.925Z" fill="white"/>
<path d="M200.796 111.308L194.574 115.003L199.467 117.845L205.719 114.17L200.796 111.308Z" fill="white"/>
<path d="M224.476 125.051L218.254 128.746L224.111 132.146L230.363 128.472L224.476 125.051Z" fill="white"/>
<path d="M231.297 129.02L225.065 132.704L235.57 138.804L241.893 135.171L231.297 129.02Z" fill="white"/>
<path d="M174.751 105.025L168.428 108.659L176.609 113.409L182.861 109.735L174.751 105.025Z" fill="white"/>
<path d="M190.626 114.241L184.404 117.936L189.022 120.616L195.274 116.941L190.626 114.241Z" fill="white"/>
<path d="M202.075 120.91L195.853 124.605L201.71 128.005L207.962 124.331L202.075 120.91Z" fill="white"/>
<path d="M196.219 117.49L189.997 121.184L194.889 124.026L201.141 120.352L196.219 117.49Z" fill="white"/>
<path d="M208.906 124.858L202.684 128.553L207.302 131.233L213.545 127.558L208.906 124.858Z" fill="white"/>
<path d="M214.499 128.106L208.277 131.801L212.702 134.369L218.944 130.695L214.499 128.106Z" fill="white"/>
<path d="M183.805 110.283L177.583 113.978L183.429 117.378L189.682 113.704L183.805 110.283Z" fill="white"/>
<path d="M219.888 131.243L213.666 134.937L219.523 138.338L225.765 134.663L219.888 131.243Z" fill="white"/>
<path d="M220.487 138.896L228.435 143.514L234.768 139.88L226.709 135.201L220.487 138.896Z" fill="white"/>
<path d="M215.828 138.256L211.2 141.017L216.569 144.123L221.269 141.423L215.828 138.256Z" fill="white"/>
<path d="M217.686 144.773L222.253 147.412L226.963 144.722L222.304 142.022L217.686 144.773Z" fill="white"/>
<path d="M166.946 109.867L162.094 112.567L167.596 115.744L172.356 113.013L166.946 109.867Z" fill="white"/>
<path d="M173.381 113.612L168.702 116.393L174.579 119.794L179.329 117.063L173.381 113.612Z" fill="white"/>
<path d="M180.364 117.662L175.695 120.443L210.083 140.368L214.793 137.657L180.364 117.662Z" fill="white"/>
<path d="M338.785 179.831C349.341 179.831 357.898 175.6 357.898 170.381C357.898 165.162 349.341 160.931 338.785 160.931C328.23 160.931 319.673 165.162 319.673 170.381C319.673 175.6 328.23 179.831 338.785 179.831Z" fill="#F04444"/>
<path d="M357.908 145.209V170.909C357.908 170.909 343.698 184.104 319.673 171.122V145.209" fill="#F04444"/>
<path opacity="0.21" d="M342.987 170.127C337.709 174.187 331.335 176.116 324.799 176.806C329.154 178.913 333.948 179.956 338.785 179.851C348.935 179.851 357.228 175.933 357.837 170.98L357.898 170.929V145.209H357.542C354.325 154.405 350.935 163.956 342.987 170.127Z" fill="#200A52"/>
<path d="M322.535 154.405C322.535 154.405 319.368 149.563 316.384 152.375C313.4 155.187 316.009 164.86 324.768 165.793V169.63C324.768 169.63 313.776 168.138 312.284 158.262C310.792 148.386 317.876 146.864 321.419 149.584" fill="#F04444"/>
<path d="M338.785 154.76C349.341 154.76 357.898 150.53 357.898 145.311C357.898 140.092 349.341 135.861 338.785 135.861C328.23 135.861 319.673 140.092 319.673 145.311C319.673 150.53 328.23 154.76 338.785 154.76Z" fill="#663535"/>
<path d="M158.907 145.27C154.198 141.981 148.656 140.195 142.667 141.494C136.293 142.895 130.771 146.904 124.275 147.889C123.26 148.041 119.15 147.777 118.52 148.376C100.443 165.489 151 163.652 151 163.652C155.903 159.592 160.521 155.684 165.393 151.624C163.911 148.376 161.475 147.077 158.907 145.27Z" fill="#F8997C"/>
<path d="M135.085 170.117L133.288 221.74C133.217 223.699 136.262 223.699 136.333 221.74L138.13 170.117C138.231 168.158 135.197 168.168 135.085 170.117Z" fill="#F8997C"/>
<path d="M173.016 197.735C163.813 188.729 155.016 179.33 146.626 169.539C145.347 168.047 143.205 170.209 144.474 171.691C152.851 181.475 161.648 190.874 170.864 199.887C172.265 201.257 174.426 199.065 173.016 197.735Z" fill="#F8997C"/>
<path d="M124.57 165.347C117.424 178.833 110.695 192.525 104.381 206.424C103.579 208.19 106.198 209.743 107.01 207.956C113.323 194.058 120.053 180.365 127.198 166.879C128.112 165.154 125.493 163.611 124.57 165.347Z" fill="#F8997C"/>
<path d="M160.166 110.76C160.785 110.608 165.992 109.268 167.271 108.842C168.55 108.415 172.508 105.34 174.66 105.797C176.812 106.253 181.146 109.106 181.349 110.06C181.552 111.014 180.334 112.171 179.877 112.587C179.42 113.003 176.284 111.856 175.066 111.663C173.848 111.47 171.909 114.353 170.762 114.861C169.615 115.368 162.206 116.698 162.206 116.698" fill="#FCBF81"/>
<path d="M174.163 123.407C174.782 123.255 179.989 121.915 181.268 121.489C182.546 121.062 186.505 117.987 188.657 118.444C190.809 118.9 195.143 121.752 195.346 122.707C195.549 123.661 194.331 124.818 193.874 125.234C193.417 125.65 190.281 124.503 189.063 124.31C187.845 124.117 185.906 127 184.759 127.508C183.612 128.015 176.203 129.345 176.203 129.345" fill="#FCBF81"/>
<path d="M172.143 189.006C173.087 187.991 173.706 186.976 173.381 185.911C172.802 184.013 170.224 183.241 168.458 183.343C166.692 183.444 164.865 184.358 163.079 184.865C161.211 185.536 159.217 185.782 157.243 185.586C156.925 185.539 156.635 185.376 156.431 185.129C155.883 185.008 155.377 184.745 154.962 184.368C154.547 183.99 154.238 183.511 154.066 182.977L148.219 180.886C148.219 180.886 146.727 193.239 146.778 194.081C147.214 200.75 157.171 196.944 157.171 196.944C157.171 196.944 157.527 193.899 157.618 193.523C157.709 193.148 161.526 194.305 163.099 194.061C163.823 193.859 164.508 193.54 165.129 193.117C166.306 192.468 167.464 191.777 168.611 191.087C169.757 190.397 170.955 189.717 172.143 189.006Z" fill="#56403D"/>
<path d="M150.31 143.413C148.118 143.626 145.925 143.91 143.743 144.225C144.65 158.252 145.665 172.269 146.788 186.276C152.472 188.6 154.776 187.524 158.298 183.921C158.968 170.554 160.135 156.516 160.105 143.037C156.857 143.179 153.588 143.321 150.31 143.413Z" fill="#34323D"/>
<path d="M126.691 139.566C126.691 139.566 125.747 154.923 133.461 158.343C141.175 161.764 156.999 160.059 164.784 155.491C168.809 153.04 173.032 150.931 177.411 149.188C177.411 149.188 179.441 142.469 174.558 139.566C169.676 136.663 158.978 133.07 149.457 139.566" fill="#34323D"/>
<path d="M166.022 116.576C166.844 113.44 166.367 108.263 166.367 108.263C166.367 108.263 156.735 109.907 152.675 109.278C148.615 108.649 141.977 100.143 141.977 100.143L142.88 116.992C150.574 118.606 158.542 118.951 166.022 116.576Z" fill="#9FABBB"/>
<path d="M189.956 198.629C190.9 197.614 191.519 196.599 191.194 195.533C190.616 193.635 188.038 192.863 186.271 192.965C184.505 193.066 182.678 193.98 180.892 194.487C179.024 195.158 177.031 195.404 175.056 195.208C174.738 195.161 174.449 194.999 174.244 194.751C173.696 194.63 173.19 194.367 172.775 193.99C172.36 193.612 172.051 193.133 171.879 192.599L166.032 190.509C166.032 190.509 164.54 202.861 164.591 203.704C165.028 210.372 174.985 206.566 174.985 206.566C174.985 206.566 175.34 203.521 175.431 203.145C175.523 202.77 179.339 203.927 180.912 203.683C181.636 203.481 182.322 203.162 182.942 202.739C184.12 202.09 185.277 201.399 186.424 200.709C187.571 200.019 188.779 199.339 189.956 198.629Z" fill="#56403D"/>
<path d="M167.464 139.941C165.434 138.987 163.343 139.089 160.927 139.099C161.262 144.042 161.079 145.818 161.384 150.751L161.465 152.06C162.399 166.676 163.495 181.282 164.611 195.888C170.295 198.212 172.599 197.137 176.122 193.533C176.903 177.973 178.375 161.551 177.806 146.062C174.528 142.814 171.625 141.89 167.464 139.941Z" fill="#34323D"/>
<path d="M126.559 136.389C126.559 136.764 126.63 138.033 126.691 139.566C129.888 143.778 133.796 146.244 139.886 146.062C144.849 145.92 149.021 143.747 152.878 141.068C152.391 132.085 150.939 116.708 148.676 106.02C148.483 105.117 146.138 104.508 145.448 104.132C143.834 103.249 144.778 101.726 143.195 100.783C140.898 99.4451 138.507 98.2781 136.039 97.2909H135.978C132.03 97.23 125.219 100.275 124.813 105.563C124.194 113.683 125.087 118.606 125.717 126.716C125.95 129.984 126.285 133.212 126.559 136.389Z" fill="#9FABBB"/>
<path d="M140.312 81.8933C140.83 82.0253 145.215 92.1144 143.499 98.245C141.784 104.376 131.37 98.0724 128.751 93.4034C126.133 88.7344 130.467 79.2949 140.312 81.8933Z" fill="#FCBF81"/>
<path d="M140.16 83.3043C140.16 83.3043 140.16 86.6335 137.247 87.7094C134.334 88.7853 131.908 89.5059 132.071 90.8559C132.233 92.2058 137.338 90.663 137.359 93.7486C137.36 95.8271 137.08 97.8963 136.526 99.8995C136.202 101.412 127.462 96.7733 124.58 88.8766C121.697 80.9799 128.914 78.8789 129.269 78.8281C129.624 78.7774 130.284 76.6256 133.806 75.8542C137.328 75.0828 138.343 76.4632 138.343 76.4632C139.147 75.9788 140.087 75.7711 141.02 75.872C141.954 75.9728 142.828 76.3765 143.51 77.0214C146.768 79.6097 145.946 84.3396 142.251 86.2579L140.16 83.3043Z" fill="#34323D"/>
<path d="M180.354 120.91C175.817 121.854 166.601 123.356 163.343 121.925C160.815 120.819 152.381 102.731 143.215 100.793L141.977 114.597C141.977 114.597 154.938 131.04 160.927 132.735C165.281 133.963 177.004 132.319 182.151 130.532C182.373 127.225 181.755 123.914 180.354 120.91V120.91Z" fill="#9FABBB"/>
<path d="M151.64 125.163C150.98 124.31 143.469 115.805 143.469 115.805L152.492 134.288L151.64 125.163Z" fill="#34323D"/>
<path d="M164.682 151.36C161.863 155.29 157.868 158.222 153.274 159.734C146.839 161.693 137.48 160.749 134.1 154.04C127.949 141.799 133.725 126.472 127.229 114.566C126.479 113.061 125.419 111.732 124.12 110.665C122.82 109.598 121.31 108.817 119.687 108.375C115.475 107.451 112.582 110.618 111.06 114.343C108.319 121.022 108.421 129.334 108.553 136.45C108.56 142.197 108.977 147.936 109.801 153.623C109.801 153.623 113.74 177.486 144.433 171.081C149.749 170.118 154.854 168.228 159.516 165.499C161.905 164.121 163.996 162.282 165.667 160.089C167.565 157.328 166.296 154.09 164.682 151.36Z" fill="#F23E2C"/>
<defs>
<filter id="filter0_f" x="79.9114" y="167.287" width="121.025" height="80.8109" filterUnits="userSpaceOnUse" color-interpolation-filters="sRGB">
<feFlood flood-opacity="0" result="BackgroundImageFix"/>
<feBlend mode="normal" in="SourceGraphic" in2="BackgroundImageFix" result="shape"/>
<feGaussianBlur stdDeviation="7.5" result="effect1_foregroundBlur"/>
</filter>
<filter id="filter1_f" x="0.913818" y="131.518" width="88.464" height="63.4544" filterUnits="userSpaceOnUse" color-interpolation-filters="sRGB">
<feFlood flood-opacity="0" result="BackgroundImageFix"/>
<feBlend mode="normal" in="SourceGraphic" in2="BackgroundImageFix" result="shape"/>
<feGaussianBlur stdDeviation="7.5" result="effect1_foregroundBlur"/>
</filter>
<filter id="filter2_f" x="271" y="155" width="95" height="66" filterUnits="userSpaceOnUse" color-interpolation-filters="sRGB">
<feFlood flood-opacity="0" result="BackgroundImageFix"/>
<feBlend mode="normal" in="SourceGraphic" in2="BackgroundImageFix" result="shape"/>
<feGaussianBlur stdDeviation="7.5" result="effect1_foregroundBlur"/>
</filter>
<filter id="filter3_f" x="107.235" y="99.5764" width="190.898" height="125.775" filterUnits="userSpaceOnUse" color-interpolation-filters="sRGB">
<feFlood flood-opacity="0" result="BackgroundImageFix"/>
<feBlend mode="normal" in="SourceGraphic" in2="BackgroundImageFix" result="shape"/>
<feGaussianBlur stdDeviation="7.5" result="effect1_foregroundBlur"/>
</filter>
<linearGradient id="paint0_linear" x1="12608.1" y1="12145.2" x2="13771" y2="10222.2" gradientUnits="userSpaceOnUse">
<stop stop-color="#6466F1"/>
<stop offset="1"/>
</linearGradient>
<linearGradient id="paint1_linear" x1="2635.1" y1="6422.57" x2="3396.84" y2="5349.48" gradientUnits="userSpaceOnUse">
<stop stop-color="#6466F1"/>
<stop offset="1" stop-color="#220D0A" stop-opacity="0.81"/>
</linearGradient>
<linearGradient id="paint2_linear" x1="3198" y1="6923.6" x2="4008.54" y2="5743.88" gradientUnits="userSpaceOnUse">
<stop stop-color="#6466F1"/>
<stop offset="1" stop-color="#1D0B08" stop-opacity="0.76"/>
</linearGradient>
<linearGradient id="paint3_linear" x1="30681.6" y1="20228.4" x2="32786.5" y2="15513.1" gradientUnits="userSpaceOnUse">
<stop stop-color="#6466F1"/>
<stop offset="1"/>
</linearGradient>
</defs>
</svg>
