<svg id="Layer_2" data-name="Layer 2" xmlns="http://www.w3.org/2000/svg" xmlns:xlink="http://www.w3.org/1999/xlink" viewBox="0 0 400 300"><defs><linearGradient id="linear-gradient" x1="299.61" y1="180.91" x2="284.65" y2="202.39" gradientUnits="userSpaceOnUse"><stop offset="0" stop-color="#ff9504"/><stop offset="0.99" stop-color="#ffc745"/></linearGradient><linearGradient id="linear-gradient-2" x1="128.42" y1="203.54" x2="113.47" y2="225.02" xlink:href="#linear-gradient"/><linearGradient id="linear-gradient-3" x1="188.37" y1="257.88" x2="199.13" y2="250.03" gradientUnits="userSpaceOnUse"><stop offset="0" stop-color="#fff" stop-opacity="0"/><stop offset="0.99" stop-color="#dc841e"/></linearGradient></defs><title>aaa</title><path d="M196.69,279.77,345.9,191.58c4.75-2.67,8.83-7,4.19-9.92L200.35,95.36c-2.25-1.39-5.66-2.3-7.94-1L35.77,185.29c-4.75,2.76-5.6,10.46-.85,13.22L177,279.63A19.84,19.84,0,0,0,196.69,279.77Z" fill="#888"/><path d="M315.2,189.23,297.64,178.9l-31.49,19.36,17.3,10.1C294.19,202.27,304.75,195.83,315.2,189.23Z" fill="url(#linear-gradient)"/><polyline points="88.14 137.94 84.74 136.99 79.91 129.37 84.39 128.65" fill="#e03636"/><path d="M58.66,92.59l2.85,41.82a2.64,2.64,0,0,0,3.92,2.12L100.12,117a3.49,3.49,0,0,0,1.77-3.28L99,71.91a2.85,2.85,0,0,0-4.26-2.28L60.4,89.33A3.49,3.49,0,0,0,58.66,92.59Z" fill="#e03636"/><polygon points="100.94 71.01 96.72 69.31 96.88 72.46 100.94 71.01" fill="#e03636"/><polygon points="66.25 137.91 63.18 136.69 65.29 135.13 66.25 137.91" fill="#e03636"/><path d="M62.25,94.09l2.85,41.82A2.64,2.64,0,0,0,69,138l34.69-19.5a3.49,3.49,0,0,0,1.77-3.28l-2.85-41.84a2.85,2.85,0,0,0-4.26-2.28L64,90.83A3.49,3.49,0,0,0,62.25,94.09Z" fill="#ff5454"/><polyline points="94.59 120.81 88.14 137.94 81.08 126.53" fill="#ff5454"/><polygon points="104.98 186.58 73.49 205.94 135.63 242.23 167.78 223.52 104.98 186.58" fill="url(#linear-gradient-2)"/><path d="M97.91,189.43v-5.7l2.77,2.77A2.7,2.7,0,0,1,97.91,189.43Z" fill="#e75a59"/><path d="M100.07,185.58l104.51-60a7.32,7.32,0,0,1,7.34,0l55.78,32.63a4.3,4.3,0,0,1,0,7.44l-103.4,59.82a9.65,9.65,0,0,1-9.78-.06L100,193A4.3,4.3,0,0,1,100.07,185.58Z" fill="#e75a59"/><path d="M100.07,180.86l104.51-60a7.32,7.32,0,0,1,7.34,0l55.78,32.63a4.3,4.3,0,0,1,0,7.44l-103.4,59.82a9.65,9.65,0,0,1-9.78-.06L100,188.29A4.3,4.3,0,0,1,100.07,180.86Z" fill="#ffdddc"/><path d="M202,128.38c.58.19,53.37,31,53.37,31L167.23,211,114,180.27Z" fill="#fff"/><path d="M144.48,206.14a1.36,1.36,0,0,0,.42-2,10,10,0,0,0-2.57-1.94c-.9-.57-1.84-1.05-2.76-1.59l-7.1-4.16-5.82-3.41a3,3,0,0,0-2.58-.28,3.05,3.05,0,0,0-1.51,1.15,1.25,1.25,0,0,0,.57,1.79l10.73,6.21,4.63,2.68,2.68,1.57a3.23,3.23,0,0,0,2.73.27A2.35,2.35,0,0,0,144.48,206.14Z" fill="#e75a59"/><ellipse cx="117.94" cy="190.08" rx="1.86" ry="1.54" fill="#e75a59"/><path d="M295.9,166.26s-2.38,20.47,8.45,24.43,16.62-6.34,16.79-24.43" fill="#dc3545"/><path d="M295.9,166.26s-2.38,20.47,8.45,24.43,16.62-6.34,16.79-24.43" fill="#2e2e75" opacity="0.33"/><ellipse cx="308.52" cy="166.26" rx="12.62" ry="7.29" fill="#f2696a"/><path d="M311.75,150s-5-7.15-2.79-12.09c0,0,1.78-3.18,4.31-3.68,0,0-.25,6.78,2.27,5.91s0-7.09,0-7.09,2.65-3.59,5.55-3.48,0,6.34,2,5.31.13-6.33,2.4-7a47.69,47.69,0,0,1,6.31-1s2.15,6.18,0,7.07-5.3,1.18-3.79,2.55,5.81-.2,5.81-.2.27,3.48-1.19,5-10-1.82-8.53,1.17,7.19,1.49,7.19,1.49-2.9,4.15-6.31,6S311.75,150,311.75,150Z" fill="#8ccc00"/><path d="M312.91,167.93s-3.58-3.53-2.88-6.57a4.65,4.65,0,0,1,2.05-2.55s.58,3.88,1.92,3.11-.76-4-.76-4,1.12-2.32,2.78-2.57.68,3.6,1.71,2.8-.6-3.61.62-4.21a27.55,27.55,0,0,1,3.47-1.25s1.88,3.28.75,4-2.88,1.24-1.88,1.85,3.27-.74,3.27-.74.52,1.95-.14,3-5.89,0-4.72,1.57,4.24.08,4.24.08a13.43,13.43,0,0,1-2.94,4.1C318.7,168,312.91,167.93,312.91,167.93Z" fill="#8ccc00"/><path d="M299.75,160.3s-8.69.34-11.7-4.14c0,0-1.72-3.21-.79-5.61,0,0,5.58,3.86,6.21,1.26s-6-3.81-6-3.81-1.6-4.16.05-6.55,5.35,3.41,5.56,1.15-5.27-3.51-4.58-5.76a47.69,47.69,0,0,1,2.54-5.86s6.37,1.51,6,3.8-1.85,5.11.12,4.56,2.95-5,2.95-5,3.08,1.64,3.56,3.68-6.93,7.49-3.6,7.82,5.12-5.27,5.12-5.27,1.94,4.68,1.7,8.57S299.75,160.3,299.75,160.3Z" fill="#8ccc00"/><path d="M329.93,129.68q-1.38,1.17-2.78,2.38c.1-1,.21-2,.37-2.94.08-.52-.71-.74-.79-.22q-.31,2-.47,3.95c-2.44,2.14-4.86,4.37-7.11,6.74a29.32,29.32,0,0,1-.15-5c0-.53-.79-.53-.82,0a30.15,30.15,0,0,0,.24,5.8,56.81,56.81,0,0,0-4,4.88,16.27,16.27,0,0,1-2.81-6.56c-.1-.52-.89-.3-.79.22a16.83,16.83,0,0,0,3,7,.42.42,0,0,0,.08.07,31.75,31.75,0,0,0-6.31,17.51c0,.53.8.53.82,0a30.85,30.85,0,0,1,6-16.91,31.67,31.67,0,0,0,10.18,1c.52,0,.53-.86,0-.82a31,31,0,0,1-9.67-.89,59.58,59.58,0,0,1,5.72-6.64l.07,0c1.92.17,3.83.34,5.76.41a7,7,0,0,0,3.57-.41c.47-.24.06-.95-.41-.71-1.33.67-3.18.31-4.6.23-1.22-.07-2.43-.18-3.65-.28,2.93-2.9,6.07-5.6,9.1-8.16C330.91,129.92,330.33,129.34,329.93,129.68Z" fill="#06577a"/><path d="M304.48,145.67a.41.41,0,0,0-.79-.22,14.55,14.55,0,0,1-5.27,7.58q-1.4-3.87-2.55-7.83a24.53,24.53,0,0,0,4.82-6.8c.23-.47-.48-.89-.71-.41a23.9,23.9,0,0,1-4.38,6.3c-.86-3-1.62-6.07-2.25-9.16-.11-.52-.9-.3-.79.22q1.31,6.33,3.23,12.48a19.26,19.26,0,0,1-4.48-1.46c-.48-.22-.89.48-.41.71a20.15,20.15,0,0,0,5.18,1.65h0c.87,2.7,1.84,5.37,2.88,8a19.86,19.86,0,0,1-7.14-1.57c-.48-.2-.9.5-.41.71a21,21,0,0,0,7.88,1.7q2,4.94,4.35,9.72c.24.47.95.06.71-.41a128.19,128.19,0,0,1-5.63-13h0A15.45,15.45,0,0,0,304.48,145.67Z" fill="#06577a"/><path d="M319.35,156.29l-2.26,3.79a7.08,7.08,0,0,1-.72-1.18c-.23-.48-.94-.06-.71.41a7.83,7.83,0,0,0,.95,1.5l0,0-2.45,4.11a1.67,1.67,0,0,1-.5-1c-.06-.52-.89-.52-.82,0a2.59,2.59,0,0,0,.9,1.69l-3.06,5.14a.41.41,0,0,0,.71.41l4-6.78a6.14,6.14,0,0,0,2-.3c.5-.16.29-1-.22-.79a5.46,5.46,0,0,1-1.27.24l4.09-6.86A.41.41,0,0,0,319.35,156.29Z" fill="#06577a"/><path d="M152.21,35.91s6.66-.06,11.17,3.82-11.17.77-11.17.77" fill="#06577a"/><path d="M134.27,97.17a17.57,17.57,0,0,0,11.67,2.51c6.41-1.07-9.81-5.4-9.81-5.4" fill="#06577a"/><ellipse cx="145.94" cy="67.25" rx="32.27" ry="19.19" transform="translate(38.52 186.75) rotate(-72.79)" fill="#06577a"/><ellipse cx="149.97" cy="68.5" rx="32.27" ry="19.19" transform="translate(40.17 191.48) rotate(-72.79)" fill="#dc3545"/><path d="M151.28,51.69l.06,0a.6.6,0,0,1,.88.28,7.58,7.58,0,0,1,.82,4q0,.72-.1,1.52c-.16,1.49-.29,3-.44,4.46,0,0,0,.08,0,.12s0,.14,0,.23l.24-.16,4.6-3.14c.31-.21.6-.34.86-.18a1.64,1.64,0,0,1,.5,1.46,5.29,5.29,0,0,1-.47,2c-.15.34-.32.66-.49,1a3.76,3.76,0,0,1,.56.28,1.74,1.74,0,0,1,.46,1.47,5.19,5.19,0,0,1-.45,1.94,5.58,5.58,0,0,1-.51.83c-.13.19-.27.34-.42.54.11.21.21.41.3.61a2.68,2.68,0,0,1,.21,1.16,4.61,4.61,0,0,1-1,2.77c-.18.2-.36.38-.57.6.08.24.15.47.21.7a3.15,3.15,0,0,1,.11.94,4.77,4.77,0,0,1-.92,2.72,1.76,1.76,0,0,1-.31.27l-6.39,4.37c-.61.42-1.16.47-1.61,0-.07-.06-.14-.13-.22-.12s-.21-.2-.21-.55q.05-2,.1-4.07.08-3.39.15-6.79a1.46,1.46,0,0,1,.16-.71,12.58,12.58,0,0,0,1-2.81c.66-2.64,1.34-5.29,2-7.92a11.7,11.7,0,0,0,.4-2.65q0-.3,0-.59c0-1.23-.05-2.49-.08-3.73a.71.71,0,0,1,.13-.44A1.63,1.63,0,0,1,151.28,51.69Z" fill="#fff"/><path d="M158.66,68a.76.76,0,0,0-.09.53,8.06,8.06,0,0,1-1,5,.7.7,0,0,0-.1.46c.14,2.1-.78,4.68-2,5.5l-2.79,1.91L148.86,84a1.48,1.48,0,0,1-1.74.11L147,84c0,.27,0,.48,0,.7a2.8,2.8,0,0,1-.89,2.2l-2.14,1.47-2.15,1.46c-.5.34-.84-.09-.82-1l.35-15.66a2.8,2.8,0,0,1,.88-2.19L146.48,68c.39-.26.66-.16.79.46l0,.15,0,0c.06-.19.12-.38.17-.58l2.38-9.28a7.21,7.21,0,0,0,.16-2.09c0-1.46-.05-2.91-.08-4.37a1.08,1.08,0,0,1,.09-.37,4,4,0,0,1,1.23-1.72.89.89,0,0,1,1.06-.07c.73.49,1.1,1.67,1.32,3.11a16.91,16.91,0,0,1,0,4.32c-.1.87-.17,1.73-.26,2.66l.24-.16,2.57-1.75,1.29-.88a1,1,0,0,1,1.44.1c.59.71.69,2.36.25,4.07-.05.2-.11.39-.15.55a9.78,9.78,0,0,1,.38,1.09A7.83,7.83,0,0,1,158.66,68Zm-.35-1a5.19,5.19,0,0,0,.45-1.94,1.74,1.74,0,0,0-.46-1.47,3.76,3.76,0,0,0-.56-.28c.18-.36.34-.69.49-1a5.29,5.29,0,0,0,.47-2,1.64,1.64,0,0,0-.5-1.46c-.26-.16-.55,0-.86.18l-4.6,3.14-.24.16c0-.09,0-.17,0-.23s0-.08,0-.12c.14-1.49.28-3,.44-4.46q.09-.8.1-1.52a7.58,7.58,0,0,0-.82-4,.6.6,0,0,0-.88-.28l-.06,0a1.63,1.63,0,0,0-.41.44.64.64,0,0,0-.13.37c0,1.31,0,2.57.08,3.8q0,.29,0,.59a11.7,11.7,0,0,1-.4,2.65c-.69,2.63-1.37,5.28-2,7.92a12.58,12.58,0,0,1-1,2.81,1.46,1.46,0,0,0-.16.71q-.07,3.39-.15,6.79,0,2-.1,4.07c0,.36,0,.55.21.55s.15.06.22.12c.46.43,1,.38,1.61,0l6.39-4.37a1.76,1.76,0,0,0,.31-.27,4.77,4.77,0,0,0,.92-2.72,3.15,3.15,0,0,0-.11-.94c-.06-.23-.14-.46-.21-.7.21-.22.39-.39.57-.6a4.61,4.61,0,0,0,1-2.77,2.68,2.68,0,0,0-.21-1.16c-.09-.2-.19-.39-.3-.61.15-.19.29-.34.42-.54a5.58,5.58,0,0,0,.51-.83"/><path d="M90.1,88.72a3.31,3.31,0,0,1,5.08,2.35c.76,3.35-.5,7.76-1.76,11.5a119,119,0,0,1-4.67,11.61c-.17.37-2.33,5.28-2.61,5.43s-.73-.32-1-.44c-.83-.39-1.65-.8-2.46-1.25A17.94,17.94,0,0,1,75,110.62c-1.6-3-2.73-7.65.37-11.84a7.66,7.66,0,0,1,2.51-2.18,4.33,4.33,0,0,1,4.19-.27,7.16,7.16,0,0,1,2.79,4.4,26.33,26.33,0,0,1,2.52-9.1A6.82,6.82,0,0,1,90.1,88.72Z" fill="#fff"/><path d="M152.72,192.92l17.66,10a1.89,1.89,0,0,0,1.88,0l20.61-12a1.89,1.89,0,0,0,0-3.26l-17.59-10.15a1.89,1.89,0,0,0-1.9,0l-20.69,12.13A1.89,1.89,0,0,0,152.72,192.92Z" fill="#dc3545"/><path d="M141.81,171l17.66,10a1.89,1.89,0,0,0,1.88,0L182,169a1.89,1.89,0,0,0,0-3.26l-17.59-10.15a1.89,1.89,0,0,0-1.9,0l-20.69,12.13A1.89,1.89,0,0,0,141.81,171Z" fill="#e6e6e6"/><path d="M177.29,148.32l17.66,10a1.89,1.89,0,0,0,1.88,0l20.61-12a1.89,1.89,0,0,0,0-3.26l-17.59-10.15a1.89,1.89,0,0,0-1.9,0l-20.69,12.13A1.89,1.89,0,0,0,177.29,148.32Z" fill="#e6e6e6"/><path d="M171.87,122.61l17.66,10a1.89,1.89,0,0,0,1.88,0l20.61-12a1.89,1.89,0,0,0,0-3.26l-17.59-10.15a1.89,1.89,0,0,0-1.9,0l-20.69,12.13A1.89,1.89,0,0,0,171.87,122.61Z" fill="#dc3545"/><path d="M144.12,150.3l17.66,10a1.89,1.89,0,0,0,1.88,0l20.61-12a1.89,1.89,0,0,0,0-3.26L166.68,134.9a1.89,1.89,0,0,0-1.9,0L144.1,147A1.89,1.89,0,0,0,144.12,150.3Z" fill="#dc3545"/><polyline points="252.69 231.59 199.55 263.51 173.29 248.25 220.19 220.95" opacity="0.32" fill="url(#linear-gradient-3)"/><path d="M191.76,218.48l57.42-35a2,2,0,0,1,3,1.79v20a2.09,2.09,0,0,1-1,1.8l-57.44,34.28a2,2,0,0,1-3-1.77l-.3-18.6A2.79,2.79,0,0,1,191.76,218.48Z" fill="#e2ac00"/><path d="M205.5,228.75c-2.06,2.88-5.68,3.69-8.08,1.81s-2.68-5.74-.61-8.61,5.68-3.69,8.08-1.81S207.56,225.87,205.5,228.75Z" fill="#fff"/><path d="M212.15,216.66l23.43-14.11a1.13,1.13,0,0,0-1.14-1.94L211,214.72a1.13,1.13,0,0,0,1.14,1.94Z" fill="#f2f2f2"/><path d="M213.12,222.39l32.29-19.44a1.13,1.13,0,0,0-1.14-1.94L212,220.45a1.13,1.13,0,0,0,1.14,1.94Z" fill="#f2f2f2"/><path d="M202.7,224.78l57.42-35a2,2,0,0,1,3,1.79v20a2.09,2.09,0,0,1-1,1.8l-57.44,34.28a2,2,0,0,1-3-1.77l-.3-18.6A2.79,2.79,0,0,1,202.7,224.78Z" fill="#f47b56"/><path d="M216.44,235c-2.06,2.88-5.68,3.69-8.08,1.81s-2.68-5.74-.61-8.61,5.68-3.69,8.08-1.81S218.5,232.17,216.44,235Z" fill="#fff"/><path d="M223.09,223l23.43-14.11a1.13,1.13,0,0,0-1.14-1.94L222,221a1.13,1.13,0,0,0,1.14,1.94Z" fill="#f2f2f2"/><path d="M224.06,228.69l32.29-19.44a1.13,1.13,0,0,0-1.14-1.94l-32.29,19.44a1.13,1.13,0,0,0,1.14,1.94Z" fill="#f2f2f2"/><path d="M212.9,231.46l57.42-35a2,2,0,0,1,3,1.79v20a2.09,2.09,0,0,1-1,1.8l-57.44,34.28a2,2,0,0,1-3-1.77l-.3-18.6A2.79,2.79,0,0,1,212.9,231.46Z" fill="#dc3545"/><path d="M212.9,231.46l57.42-35a2,2,0,0,1,3,1.79v20a2.09,2.09,0,0,1-1,1.8l-57.44,34.28a2,2,0,0,1-3-1.77l-.3-18.6A2.79,2.79,0,0,1,212.9,231.46Z" fill="#dc3545"/><path d="M226.64,241.73c-2.06,2.88-5.68,3.69-8.08,1.81s-2.68-5.74-.61-8.61,5.68-3.69,8.08-1.81S228.7,238.85,226.64,241.73Z" fill="#fff"/><path d="M233.29,229.64l23.43-14.11a1.13,1.13,0,0,0-1.14-1.94l-23.43,14.11a1.13,1.13,0,0,0,1.14,1.94Z" fill="#f2f2f2"/><path d="M234.26,235.37l32.29-19.44a1.13,1.13,0,0,0-1.14-1.94l-32.29,19.44a1.13,1.13,0,0,0,1.14,1.94Z" fill="#f2f2f2"/></svg>